<?xml version="1.0" encoding="UTF-8"?>
<!DOCTYPE svg PUBLIC "-//W3C//DTD SVG 1.1//EN" "http://www.w3.org/Graphics/SVG/1.1/DTD/svg11.dtd">
<!-- Creator: CorelDRAW -->
<svg xmlns="http://www.w3.org/2000/svg" xml:space="preserve" width="1.5in" height="1.5in" version="1.1" style="shape-rendering:geometricPrecision; text-rendering:geometricPrecision; image-rendering:optimizeQuality; fill-rule:evenodd; clip-rule:evenodd"
viewBox="0 0 1500 1500"
 xmlns:xlink="http://www.w3.org/1999/xlink"
 xmlns:xodm="http://www.corel.com/coreldraw/odm/2003">
 <defs>
  <style type="text/css">
   <![CDATA[
    .fil0 {fill:none}
    .fil2 {fill:#DCDFE0}
    .fil1 {fill:white}
    .fil3 {fill:#66023C;fill-rule:nonzero}
   ]]>
  </style>
 </defs>
 <g id="Layer_x0020_1">
  <metadata id="CorelCorpID_0Corel-Layer"/>
  <circle id="Sizer" class="fil0" cx="750" cy="750" r="625"/>
  <path class="fil1" d="M750 217.4c71.5,0 139.83,14.17 202.32,39.85 62.19,25.56 118.42,62.47 166.06,108.1l100.74 0c9.47,0 18.08,3.87 24.33,10.11l0.08 0.08c6.24,6.25 10.11,14.86 10.11,24.33l0 176.59c9.28,26.93 16.46,54.88 21.36,83.65 5,29.37 7.6,59.42 7.6,89.9 0,30.48 -2.61,60.53 -7.6,89.9 -4.9,28.77 -12.08,56.72 -21.36,83.65l0 110.01c0,2.22 -0.26,4.58 -0.77,7.01 -0.39,1.88 -0.98,3.78 -1.74,5.69 -3.68,9.84 -8.33,18.85 -13.79,27.13l0 0.08c-5.39,8.17 -11.6,15.61 -18.47,22.42 -6.63,6.57 -13.76,12.45 -21.26,17.74 -7.25,5.12 -14.98,9.78 -23.04,14.07 -2.44,1.39 -5.06,2.51 -7.79,3.28 -3.06,0.85 -6.19,1.32 -9.31,1.32l-36.73 0c-47.85,46.41 -104.35,83.91 -166.81,109.82 -62.87,26.08 -131.77,40.48 -203.93,40.48 -72.17,0 -141.05,-14.4 -203.93,-40.48 -62.46,-25.91 -118.96,-63.41 -166.81,-109.82l-101.81 -0c-9.47,0 -18.07,-3.87 -24.33,-10.11l-0.08 -0.08c-6.24,-6.25 -10.11,-14.85 -10.11,-24.32l0 -184.46c-8.14,-25.29 -14.45,-51.62 -18.79,-78.83 -4.44,-27.8 -6.74,-56.04 -6.74,-84.49 0,-28.45 2.3,-56.69 6.74,-84.49 4.34,-27.22 10.65,-53.55 18.79,-78.83l0 -122.58c0,-9.47 3.87,-18.08 10.11,-24.33l0.08 -0.08c6.25,-6.24 14.85,-10.11 24.33,-10.11l14.53 0 12.61 -12.06 0 -17.65c0,-9.47 3.87,-18.07 10.11,-24.33l0.08 -0.08c6.25,-6.24 14.85,-10.11 24.32,-10.11l42.51 0c20.08,-19.23 41.72,-36.94 64.7,-52.92 23.39,-16.27 48.25,-30.75 74.35,-43.21l1.41 -1.92 -0.05 -0.04c1.86,-2.46 4,-4.92 6.39,-7.34 6.82,-6.92 14.49,-12.16 22.93,-15.69 8.33,-3.48 17.4,-5.24 27.13,-5.25l21.09 -0.01c23.6,-6.94 47.96,-12.3 72.95,-15.94 25.44,-3.71 51.31,-5.63 77.49,-5.63z"/>
  <circle class="fil2" cx="750" cy="750" r="511.89"/>
  <g id="_1429966423296">
   <path id="diversity_1_24dp_E3E3E3_FILL0_wght400_GRAD0_opsz24.svg" class="fil3" d="M750.05 631.24c-78.43,0 -140.2,-61.76 -140.2,-140.2 0,-39.73 13.62,-73.03 40.89,-99.91 27.25,-26.87 60.36,-40.31 99.3,-40.31 39.73,0 73.02,13.44 99.89,40.31 26.89,26.88 40.33,60.18 40.33,99.91 0,38.94 -13.44,72.06 -40.33,99.31 -26.87,27.28 -60.16,40.89 -99.89,40.89zm-280.41 490.24l0 -285.77c0,-50.62 25.89,-91.53 77.7,-122.67 51.79,-31.16 119.37,-46.74 202.71,-46.74 84.13,0 151.89,15.58 203.3,46.74 51.42,31.14 77.13,72.05 77.13,122.67l0 224.09c0,0.78 -0.28,29.65 -0.74,62.07 -0.22,15.11 -12.57,27.3 -27.69,27.3l-504.71 0c-15.25,0 -27.69,-12.44 -27.69,-27.69z"/>
   <path id="diversity_1_24dp_E3E3E3_FILL0_wght400_GRAD0_opsz24.svg_1" class="fil3" d="M375.82 677.46c-52.86,0 -94.49,-41.63 -94.49,-94.49 0,-26.78 9.18,-49.22 27.56,-67.33 18.37,-18.11 40.69,-27.17 66.93,-27.17 26.77,0 49.21,9.06 67.32,27.17 18.12,18.11 27.18,40.56 27.18,67.33 0,26.25 -9.06,48.56 -27.18,66.93 -18.11,18.38 -40.55,27.56 -67.32,27.56zm748.25 0c-52.86,0 -94.48,-41.63 -94.48,-94.49 0,-26.78 9.17,-49.22 27.56,-67.33 18.37,-18.11 40.68,-27.17 66.93,-27.17 26.77,0 49.22,9.06 67.32,27.17 18.12,18.11 27.18,40.56 27.18,67.33 0,26.25 -9.06,48.56 -27.18,66.93 -18.11,18.38 -40.55,27.56 -67.32,27.56zm-79.35 32.24c23.55,-5.74 50,-8.61 79.35,-8.61 56.7,0 102.37,10.5 137.01,31.5 34.66,21 51.98,48.56 51.98,82.68 0,54.13 0.31,108.3 -0.15,162.43 -0.13,15.17 -12.52,27.45 -27.69,27.45l-193.21 0 0 -169.43c0,-36.91 -9.64,-70.7 -28.9,-101.34 -5.39,-8.58 -11.52,-16.81 -18.39,-24.68zm-857.88 267.76l0 -162.19c0,-34.11 17.45,-61.68 52.37,-82.68 34.9,-21 80.45,-31.5 136.62,-31.5 29.56,0 56.13,2.86 79.69,8.57 -6.86,7.81 -12.98,15.97 -18.37,24.47l0 0.24c-19.36,30.57 -29.04,64.35 -29.04,101.34l0 169.43 -193.57 0c-15.25,0 -27.69,-12.44 -27.69,-27.69z"/>
  </g>
 </g>
</svg>
