<?xml version="1.0" encoding="UTF-8"?>
<!DOCTYPE svg PUBLIC "-//W3C//DTD SVG 1.1//EN" "http://www.w3.org/Graphics/SVG/1.1/DTD/svg11.dtd">
<!-- Creator: CorelDRAW -->
<svg xmlns="http://www.w3.org/2000/svg" xml:space="preserve" width="1.5in" height="1.5in" version="1.1" style="shape-rendering:geometricPrecision; text-rendering:geometricPrecision; image-rendering:optimizeQuality; fill-rule:evenodd; clip-rule:evenodd"
viewBox="0 0 1500 1500"
 xmlns:xlink="http://www.w3.org/1999/xlink"
 xmlns:xodm="http://www.corel.com/coreldraw/odm/2003">
 <defs>
  <style type="text/css">
   <![CDATA[
    .fil0 {fill:none}
    .fil3 {fill:#66023C}
    .fil4 {fill:#66023C}
    .fil2 {fill:#DCDFE0}
    .fil1 {fill:white}
   ]]>
  </style>
 </defs>
 <g id="Layer_x0020_1">
  <metadata id="CorelCorpID_0Corel-Layer"/>
  <circle id="Sizer" class="fil0" cx="750" cy="750" r="625"/>
  <path class="fil1" d="M750 217.4c71.5,0 139.83,14.17 202.32,39.85 62.19,25.56 118.42,62.47 166.06,108.1l100.74 0c9.47,0 18.08,3.87 24.33,10.11l0.08 0.08c6.24,6.25 10.11,14.86 10.11,24.33l0 176.59c9.28,26.93 16.46,54.88 21.36,83.65 5,29.37 7.6,59.42 7.6,89.9 0,30.48 -2.61,60.53 -7.6,89.9 -4.9,28.77 -12.08,56.72 -21.36,83.65l0 110.01c0,2.22 -0.26,4.58 -0.77,7.01 -0.39,1.88 -0.98,3.78 -1.74,5.69 -3.68,9.84 -8.33,18.85 -13.79,27.13l0 0.08c-5.39,8.17 -11.6,15.61 -18.47,22.42 -6.63,6.57 -13.76,12.45 -21.26,17.74 -7.25,5.12 -14.98,9.78 -23.04,14.07 -2.44,1.39 -5.06,2.51 -7.79,3.28 -3.06,0.85 -6.19,1.32 -9.31,1.32l-36.73 0c-47.85,46.41 -104.35,83.91 -166.81,109.82 -62.87,26.08 -131.77,40.48 -203.93,40.48 -72.17,0 -141.05,-14.4 -203.93,-40.48 -62.46,-25.91 -118.96,-63.41 -166.81,-109.82l-101.81 -0c-9.47,0 -18.07,-3.87 -24.33,-10.11l-0.08 -0.08c-6.24,-6.25 -10.11,-14.85 -10.11,-24.32l0 -184.46c-8.14,-25.29 -14.45,-51.62 -18.79,-78.83 -4.44,-27.8 -6.74,-56.04 -6.74,-84.49 0,-28.45 2.3,-56.69 6.74,-84.49 4.34,-27.22 10.65,-53.55 18.79,-78.83l0 -122.58c0,-9.47 3.87,-18.08 10.11,-24.33l0.08 -0.08c6.25,-6.24 14.85,-10.11 24.33,-10.11l14.53 0 12.61 -12.06 0 -17.65c0,-9.47 3.87,-18.07 10.11,-24.33l0.08 -0.08c6.25,-6.24 14.85,-10.11 24.32,-10.11l42.51 0c20.08,-19.23 41.72,-36.94 64.7,-52.92 23.39,-16.27 48.25,-30.75 74.35,-43.21l1.41 -1.92 -0.05 -0.04c1.86,-2.46 4,-4.92 6.39,-7.34 6.82,-6.92 14.49,-12.16 22.93,-15.69 8.33,-3.48 17.4,-5.24 27.13,-5.25l21.09 -0.01c23.6,-6.94 47.96,-12.3 72.95,-15.94 25.44,-3.71 51.31,-5.63 77.49,-5.63z"/>
  <circle class="fil2" cx="750" cy="750" r="511.89"/>
  <path class="fil3" d="M791.54 1138.43c-157.06,-243.77 149.56,-296.26 229.14,-501.89 84.54,-218.39 -132.41,-399.1 -312.22,-475.41 157.06,243.77 -149.56,296.26 -229.14,501.88 -84.54,218.39 132.41,399.1 312.22,475.41z"/>
  <path id="Doric_x0020_Column" class="fil4" d="M559.44 1205.09l0 -18.83c0,-9.19 7.52,-16.7 16.7,-16.7 115.91,0 231.81,0 347.72,0 9.19,0 16.7,7.5 16.7,16.7l0 18.83c0,7.09 -5.78,12.88 -12.87,12.88l-355.38 0c-7.09,0 -12.87,-5.79 -12.87,-12.88zm-25.76 32.75c144.21,0 288.43,0 432.63,0 7.09,0 12.88,5.79 12.88,12.87l0 51.26c0,7.09 -5.79,12.88 -12.88,12.88l-432.63 0c-7.09,0 -12.87,-5.78 -12.87,-12.88l0 -51.26c0,-7.09 5.79,-12.87 12.87,-12.87z"/>
 </g>
</svg>
