<svg width="144" height="144" viewBox="0 0 144 144" fill="none" xmlns="http://www.w3.org/2000/svg">
<path fill-rule="evenodd" clip-rule="evenodd" d="M71.9997 20.8711C78.8637 20.8711 85.4234 22.2314 91.4224 24.6967C97.3927 27.1505 102.791 30.6938 107.364 35.0743H117.035C117.944 35.0743 118.771 35.4458 119.371 36.0449L119.379 36.0525C119.978 36.6525 120.349 37.4791 120.349 38.3882V55.3409C121.24 57.9261 121.929 60.6093 122.4 63.3713C122.88 66.1908 123.129 69.0756 123.129 72.0017C123.129 74.9277 122.879 77.8125 122.4 80.6321C121.929 83.394 121.24 86.0772 120.349 88.6625V99.2234C120.349 99.4365 120.324 99.6631 120.275 99.8964C120.238 100.077 120.181 100.259 120.108 100.443C119.755 101.387 119.309 102.252 118.784 103.047V103.055C118.267 103.839 117.671 104.553 117.011 105.207C116.375 105.838 115.69 106.402 114.97 106.91C114.274 107.402 113.532 107.849 112.758 108.261C112.524 108.394 112.273 108.502 112.011 108.576C111.717 108.657 111.416 108.702 111.117 108.702H107.591C102.997 113.158 97.5732 116.758 91.577 119.245C85.5415 121.749 78.9271 123.131 71.9997 123.131C65.0714 123.131 58.4589 121.749 52.4224 119.245C46.4263 116.758 41.0023 113.158 36.4087 108.702H26.6349C25.7258 108.702 24.9002 108.331 24.2992 107.732L24.2916 107.724C23.6925 107.124 23.321 106.299 23.321 105.389V87.6813C22.5396 85.2535 21.9338 82.7258 21.5172 80.1137C21.0909 77.4449 20.8701 74.7338 20.8701 72.0026C20.8701 69.2714 21.0909 66.5604 21.5172 63.8916C21.9338 61.2785 22.5396 58.7508 23.321 56.3239V44.5562C23.321 43.6471 23.6925 42.8205 24.2916 42.2205L24.2992 42.2129C24.8992 41.6138 25.7248 41.2423 26.6349 41.2423H28.0298L29.2404 40.0845V38.3901C29.2404 37.481 29.6119 36.6554 30.2109 36.0545L30.2186 36.0468C30.8186 35.4477 31.6442 35.0762 32.5533 35.0762H36.6343C38.562 33.2301 40.6394 31.53 42.8455 29.9959C45.0909 28.434 47.4775 27.0439 49.9831 25.8477L50.1184 25.6634L50.1136 25.6596C50.2922 25.4234 50.4976 25.1873 50.7271 24.9549C51.3818 24.2906 52.1181 23.7876 52.9284 23.4487C53.728 23.1146 54.5988 22.9457 55.5328 22.9447L57.5575 22.9437C59.8231 22.2775 62.1616 21.7629 64.5607 21.4135C67.0029 21.0573 69.4864 20.873 71.9997 20.873V20.8711Z" fill="white"/>
<path d="M71.9998 121.142C99.1399 121.142 121.141 99.1409 121.141 72.0008C121.141 44.8607 99.1399 22.8594 71.9998 22.8594C44.8598 22.8594 22.8584 44.8607 22.8584 72.0008C22.8584 99.1409 44.8598 121.142 71.9998 121.142Z" fill="#DCDFE0"/>
<path fill-rule="evenodd" clip-rule="evenodd" d="M56.5013 38.0068C51.5085 38.1828 46.4241 39.967 41.3826 43.4555C40.9346 43.7678 40.6502 44.3127 40.6502 44.8642V51.0572L36.3603 51.8812C35.6018 52.0273 35.0001 52.7716 35.0001 53.5557V96.1094C34.9903 96.8735 35.5527 97.6045 36.2818 97.7839L71.7776 106.263C72.0261 106.323 72.2876 106.323 72.5361 106.263L107.692 97.7839C108.431 97.6145 109.006 96.8802 109 96.1094V53.5557C109 52.7716 108.398 52.0274 107.64 51.8812L103.324 51.0306V44.8642C103.324 44.3126 103.043 43.7677 102.591 43.4555C97.2127 39.7343 91.7918 37.9668 86.4782 38.0067C81.5115 38.0466 76.6463 39.7078 71.9873 42.8442C67.328 39.7078 62.4625 38.0466 57.4964 38.0067C57.1661 38.0034 56.8359 37.9934 56.5024 38.0067L56.5013 38.0068ZM56.0566 49.2238C58.3095 49.2404 60.5688 49.9281 62.7007 51.1906C63.5573 51.5794 63.9301 52.7854 63.4593 53.6094C62.9884 54.4334 61.7819 54.6792 61.0266 54.1144C57.5444 52.0545 54.569 51.9415 51.1395 54.0879C50.4038 54.6859 49.1515 54.4766 48.6544 53.6626C48.1574 52.8486 48.5302 51.6226 49.3869 51.2173C51.5448 49.8651 53.8037 49.2072 56.0566 49.2238ZM87.3672 49.2238C89.6265 49.2404 91.8761 49.9281 94.0112 51.1906C94.8678 51.5794 95.2407 52.7854 94.7698 53.6094C94.2989 54.4334 93.0924 54.6792 92.3372 54.1144C88.8582 52.0578 85.8631 51.9482 82.4759 54.0879C81.737 54.646 80.5337 54.4267 80.0433 53.636C79.5529 52.8453 79.8831 51.6525 80.6973 51.2172C82.8422 49.8616 85.1077 49.2072 87.3672 49.2238ZM40.65 54.5131V90.316C40.6369 91.532 42.1998 92.4225 43.2134 91.7779C52.7214 85.8042 61.6452 86.143 70.9406 91.645C71.7253 92.0205 72.4021 91.9839 73.0332 91.6716C82.3026 86.153 91.2423 85.7976 100.76 91.7779C101.774 92.4225 103.337 91.5321 103.324 90.316V54.5131L105.626 54.965V94.7807L72.1438 102.861L38.3481 94.7807V54.965L40.65 54.5131ZM56.3186 57.8622C58.5813 57.8788 60.8275 58.5399 62.9627 59.8024C63.7213 60.2476 64.0025 61.344 63.5643 62.1149C63.1262 62.8857 62.0472 63.198 61.2886 62.7528C57.8096 60.6962 54.8014 60.5799 51.3746 62.7262C50.6291 63.2279 49.488 62.9688 49.0204 62.1946C48.5528 61.4205 48.8438 60.2809 49.622 59.8291C51.7833 58.4769 54.056 57.8456 56.3186 57.8622ZM87.6292 57.8622C89.8918 57.8788 92.1381 58.5399 94.2732 59.8024C95.0318 60.2476 95.313 61.344 94.8748 62.1149C94.4367 62.8857 93.3577 63.198 92.5991 62.7528C89.1201 60.6962 86.1381 60.5799 82.7119 62.7262C81.9664 63.198 80.8481 62.9256 80.3839 62.168C79.9196 61.4105 80.1877 60.3008 80.9332 59.829C83.0945 58.4768 85.3665 57.8456 87.6292 57.8622ZM56.5798 66.4476C58.8457 66.4642 61.1149 67.1586 63.25 68.4411C64.0609 68.863 64.3945 70.0358 63.9301 70.8332C63.4658 71.6306 62.3051 71.8831 61.5498 71.3648C58.0741 69.2783 55.0855 69.1621 51.6626 71.3382C50.9236 71.8964 49.7204 71.6771 49.2299 70.8864C48.7395 70.0956 49.0697 68.9029 49.8839 68.4676C52.0451 67.0954 54.3139 66.431 56.5798 66.4476ZM87.8903 66.4476C90.1529 66.4642 92.4156 67.1586 94.5344 68.4411C95.2864 68.8996 95.5611 70.0159 95.1098 70.7801C94.6586 71.5442 93.56 71.8234 92.808 71.3648C89.3682 69.2817 86.396 69.1621 82.9727 71.3382C82.2337 71.8964 81.0305 71.6771 80.5401 70.8864C80.0496 70.0956 80.3798 68.9029 81.194 68.4676C83.3553 67.0954 85.6277 66.431 87.8903 66.4476ZM56.815 75.0857C59.0776 75.1023 61.3239 75.7701 63.4591 77.0526C64.2176 77.5044 64.5054 78.6208 64.0607 79.3916C63.616 80.1624 62.5173 80.4548 61.7588 80.0029C58.2831 77.9164 55.311 77.8068 51.9235 79.9763C51.178 80.4481 50.0598 80.1757 49.5955 79.4182C49.1312 78.6607 49.3993 77.551 50.1448 77.0792C52.293 75.7037 54.5523 75.0691 56.815 75.0857ZM88.1255 75.0857C90.3881 75.1023 92.6606 75.7701 94.7958 77.0526C95.5544 77.5044 95.8421 78.6208 95.3974 79.3916C94.9527 80.1624 93.8541 80.4548 93.0955 80.0029C89.6199 77.9164 86.6215 77.8068 83.2343 79.9763C82.4888 80.4481 81.3705 80.1757 80.9063 79.4182C80.442 78.6607 80.7101 77.551 81.4556 77.0792C83.6038 75.7037 85.8628 75.0691 88.1255 75.0857Z" fill="#66023C"/>
</svg>
