<?xml version="1.0" encoding="UTF-8"?>
<!DOCTYPE svg PUBLIC "-//W3C//DTD SVG 1.1//EN" "http://www.w3.org/Graphics/SVG/1.1/DTD/svg11.dtd">
<!-- Creator: CorelDRAW -->
<svg xmlns="http://www.w3.org/2000/svg" xml:space="preserve" width="9in" height="9in" version="1.1" style="shape-rendering:geometricPrecision; text-rendering:geometricPrecision; image-rendering:optimizeQuality; fill-rule:evenodd; clip-rule:evenodd"
viewBox="0 0 9000 9000"
 xmlns:xlink="http://www.w3.org/1999/xlink"
 xmlns:xodm="http://www.corel.com/coreldraw/odm/2003">
 <defs>
  <style type="text/css">
   <![CDATA[
    .fil0 {fill:none}
    .fil1 {fill:black}
   ]]>
  </style>
 </defs>
 <g id="Layer_x0020_1">
  <metadata id="CorelCorpID_0Corel-Layer"/>
  <circle id="Disc" class="fil0" cx="4500" cy="4500" r="4281.97"/>
  <path id="Phi_x0020_Logo" class="fil1" d="M3906.07 8058.07c-25.24,2.16 -45.22,23.5 -45.22,49.29l0 70.5c0,21 17.13,38.15 38.15,38.15l1202.02 0c21.01,0 38.15,-17.13 38.15,-38.15l0 -70.5c0,-26.68 -21.38,-48.57 -47.82,-49.44l0 0.15 -1185.26 0zm593.96 -602.15c25.62,0 53.45,-20.33 53.45,-46.83l-6.98 -5803.16c0,-25.79 -20.88,-46.84 -46.5,-46.84 -25.57,0 -46.5,21.08 -46.5,46.84l-6.91 5803.16c0,26.46 27.87,46.83 53.44,46.83zm-332.19 -27.25c25.62,0 53.61,-20.33 53.82,-46.83l38 -5759.55c0.2,-25.8 -20.51,-46.85 -46.13,-46.85 -25.58,0 -46.67,21.08 -46.87,46.85l-51.89 5759.55c-0.2,26.46 27.5,46.83 53.08,46.83zm664.3 0c-25.62,0 -53.61,-20.33 -53.82,-46.83l-38 -5759.55c-0.2,-25.8 20.51,-46.85 46.13,-46.85 25.58,0 46.67,21.08 46.87,46.85l51.89 5759.55c0.2,26.46 -27.5,46.83 -53.08,46.83zm2322.14 -2928.68c0,1260.97 -894.09,2324.86 -2079.06,2589.73l15.05 873.55c0.36,20.97 -18.02,35.75 -38.14,35.75l-1104.27 0c-20.12,0 -38.5,-14.77 -38.14,-35.75l15.05 -873.51c-1185.1,-264.78 -2079.06,-1328.62 -2079.06,-2589.77 0,-1291.8 935.39,-2377.18 2168.57,-2606.28l10.09 -585.74c0.33,-19.19 17.34,-34.63 38.14,-34.63l874.94 0c20.8,0 37.81,15.46 38.14,34.63l10.06 584.07c1227.87,230.64 2168.62,1317.36 2168.62,2607.95zm-3146.01 -2257.44c-245.94,181.13 -425.81,478.02 -543.31,747.1 -7.46,17.08 0.14,37.09 17.07,44.9 163.76,75.58 334.59,132.13 509.69,169.28l16.56 -961.28zm999.99 961.25c175.06,-37.15 345.84,-93.69 509.57,-169.25 16.93,-7.81 24.53,-27.81 17.07,-44.9 -117.48,-269.06 -297.32,-565.88 -543.2,-747.01l16.56 961.16zm20.41 1184.62l759.43 0c19.54,0 34.95,-15.94 34.31,-35.46 -12.98,-395.17 -78.01,-764.7 -182.99,-1087.26 -6.36,-19.56 -28.06,-29.12 -46.79,-20.65 -186.28,84.28 -381.01,146.29 -580.46,185.38l16.51 957.99zm20.48 1188.65c186.53,39.33 368.72,98.79 543.47,177.86 18.74,8.48 40.43,-1.09 46.79,-20.65 104.98,-322.57 170.02,-692.09 182.99,-1087.27 0.64,-19.5 -14.81,-35.46 -34.31,-35.46l-755.58 0 16.64 965.52zm19.27 1118.28c206.95,-182.38 361.57,-444.75 466.48,-685.01 7.46,-17.08 -0.14,-37.09 -17.07,-44.91 -149.72,-69.1 -305.35,-122.28 -464.73,-159.29l15.32 889.2zm-1121.54 -889.24c-159.41,37 -315.06,90.2 -464.84,159.32 -16.93,7.81 -24.53,27.82 -17.07,44.91 104.93,240.28 259.58,502.72 466.59,685.11l15.32 -889.34zm20.58 -1194.56l-755.69 0c-19.51,0 -34.95,15.95 -34.31,35.46 12.97,395.18 78.01,764.71 182.99,1087.27 6.36,19.56 28.06,29.12 46.79,20.65 174.79,-79.08 357.02,-138.55 543.59,-177.88l16.63 -965.49zm20.35 -1181.11c-199.48,-39.09 -394.24,-101.11 -580.57,-185.4 -18.74,-8.48 -40.43,1.09 -46.79,20.65 -104.98,322.56 -170.02,692.09 -182.99,1087.26 -0.64,19.51 14.78,35.46 34.31,35.46l759.54 0 16.5 -957.97zm2901.12 1181.11l-808.91 0c-18.52,0 -33.74,14.75 -34.31,33.26 -13.61,437.94 -88.64,847.96 -210.14,1203.74 -5.31,15.54 0.86,32.26 14.98,40.63 133.5,79.08 259.51,169.55 376.65,270.03 13.96,11.97 34.89,10.82 47.44,-2.62 373.65,-400.12 613.58,-926.76 648.56,-1508.65 1.19,-19.84 -14.42,-36.39 -34.27,-36.39zm-829.89 1696.82c-88.43,-73.98 -182.26,-141.83 -280.73,-202.82 -17.76,-11 -40.9,-3.9 -49.42,15.18 -91.39,204.61 -208.19,404.45 -354.79,575.27 -23.35,27.2 5.76,67.65 38.97,54.16 236.11,-95.91 453.75,-227.92 646,-389.15 16.37,-13.73 16.34,-38.94 -0.03,-52.63zm-2433.24 387.68c-146.61,-170.81 -263.44,-370.69 -354.83,-575.31 -8.52,-19.08 -31.65,-26.19 -49.42,-15.19 -98.5,60.99 -192.31,128.85 -280.76,202.85 -16.38,13.71 -16.4,38.91 -0.03,52.63 192.27,161.24 409.93,293.27 646.08,389.17 33.21,13.49 62.3,-26.96 38.96,-54.16zm-853.17 -536.8c117.14,-100.48 243.17,-190.98 376.69,-270.07 14.13,-8.37 20.29,-25.09 14.99,-40.63 -121.5,-355.78 -196.54,-765.79 -210.15,-1203.74 -0.57,-18.51 -15.79,-33.26 -34.31,-33.26l-808.98 0c-19.87,0 -35.47,16.55 -34.28,36.39 34.98,581.9 274.93,1108.56 648.59,1508.69 12.56,13.44 33.49,14.59 47.44,2.62zm-661.77 -1770.83l808.98 0c18.54,0 33.74,-14.75 34.31,-33.26 13.6,-437.94 88.64,-847.95 210.14,-1203.73 5.31,-15.54 -0.86,-32.26 -14.98,-40.63 -133.52,-79.09 -259.55,-169.58 -376.7,-270.08 -13.96,-11.97 -34.89,-10.82 -47.44,2.62 -373.66,400.14 -613.61,926.78 -648.58,1508.69 -1.19,19.85 14.39,36.39 34.28,36.39zm829.91 -1696.85c88.45,74 182.29,141.87 280.78,202.87 17.77,11 40.9,3.9 49.42,-15.19 91.39,-204.64 208.24,-404.52 354.88,-575.36 23.35,-27.2 -5.76,-67.65 -38.97,-54.16 -236.17,95.9 -453.86,227.94 -646.15,389.21 -16.37,13.73 -16.34,38.93 0.03,52.63zm2433.3 -387.64c146.6,170.82 263.46,370.7 354.84,575.33 8.52,19.08 31.65,26.18 49.42,15.18 98.48,-60.99 192.3,-128.84 280.74,-202.83 16.38,-13.71 16.4,-38.91 0.04,-52.63 -192.27,-161.26 -409.92,-293.3 -646.07,-389.2 -33.21,-13.49 -62.31,26.97 -38.96,54.17zm853.16 536.83c-117.13,100.48 -243.15,190.97 -376.66,270.05 -14.13,8.37 -20.29,25.09 -14.99,40.63 121.5,355.78 196.53,765.79 210.14,1203.73 0.57,18.51 15.78,33.26 34.31,33.26l808.91 0c19.89,0 35.47,-16.54 34.28,-36.39 -34.96,-581.89 -274.91,-1108.53 -648.54,-1508.65 -12.55,-13.44 -33.5,-14.59 -47.44,-2.62zm-2368.09 -1828.6c427.24,0 854.48,0 1281.73,0 21.01,0 38.15,-17.14 38.15,-38.15l0 -151.87c0,-21.01 -17.15,-38.15 -38.15,-38.15l-1281.73 0c-21,0 -38.15,17.15 -38.15,38.15l0 151.87c0,21 17.13,38.15 38.15,38.15zm76.3 97.03l0 55.8c0,27.21 22.28,49.46 49.48,49.46 343.39,0 686.78,0 1030.17,0 27.22,0 49.49,-22.23 49.49,-49.46l0 -55.8c0,-21.01 -17.15,-38.15 -38.15,-38.15l-1052.85 0c-21,0 -38.15,17.17 -38.15,38.15z"/>
 </g>
</svg>
