<?xml version="1.0" encoding="UTF-8" standalone="no"?>
<!DOCTYPE svg PUBLIC "-//W3C//DTD SVG 1.1//EN" "http://www.w3.org/Graphics/SVG/1.1/DTD/svg11.dtd">
<svg width="100%" height="100%" viewBox="0 0 648 648" version="1.1" xmlns="http://www.w3.org/2000/svg" xmlns:xlink="http://www.w3.org/1999/xlink" xml:space="preserve" xmlns:serif="http://www.serif.com/" style="fill-rule:evenodd;clip-rule:evenodd;stroke-linejoin:round;stroke-miterlimit:2;">
    <g id="Logo" transform="matrix(0.072,0,0,0.072,0,0)">
        <path d="M3906.07,8058.07C3880.83,8060.23 3860.85,8081.55 3860.85,8107.36L3860.85,8177.86C3860.85,8198.87 3877.98,8216.01 3899,8216.01L5101.02,8216.01C5122.03,8216.01 5139.17,8198.88 5139.17,8177.86L5139.17,8107.36C5139.17,8080.68 5117.79,8058.79 5091.35,8057.92L5091.35,8058.07L3906.07,8058.07ZM2680.28,7629.53C2634.29,7628.43 2588.3,7625.54 2537.78,7615.82C2065.93,7525.12 1463.32,7229.56 1496.26,7150.13C1522.22,7087.52 1922.47,7208.94 2285.25,7395.72C2208.41,7343.22 2133.76,7287.86 2061.44,7229.96C1892.11,7165.44 1707.99,7030.19 1602.41,7015.15C1549.46,7087.3 1422.67,7084.26 1319.22,7008.35C1215.77,6932.43 1174.83,6812.4 1227.78,6740.24C1262.42,6693.03 1322.21,6687.38 1392.63,6704.25C1017.01,6430.39 638.56,5992.45 695.01,5936.01C746.61,5884.41 1117.5,6195.75 1389.57,6536.8C1349.4,6482.82 1310.92,6427.78 1274.17,6371.76L1262.29,6377.81C1246.05,6346.2 1232.14,6315.88 1220.09,6286.62C1120.31,6124.27 1034.65,5954.28 963.79,5778.47C947.7,5759.69 933.81,5736.95 923,5711.3C885.52,5672.8 849.68,5634.11 816.02,5584.5C546.2,5186.93 328.59,4552 408.03,4519.06C477.01,4490.45 709.65,4940.93 828.42,5369.13C755.95,5091.7 718.54,4804.11 718.66,4512.6L718.64,4509.27L718.53,4509.16C718.53,4482.53 718.84,4455.97 719.46,4429.49C694.89,4368.44 671.23,4311 656.63,4240.06C559.67,3769.45 601.86,3099.6 687.86,3099.6C760.85,3099.6 802.96,3582.25 754.13,4015.86C775.93,3866.09 807.5,3719.48 848.17,3576.69L849.39,3572.42C850.56,3566.36 851.75,3560.32 852.98,3554.28C859.71,3521.19 867.34,3488.38 875.61,3456.2C812.77,3410.56 777.26,3313.37 795.39,3194.68C819.09,3039.46 914.7,2944.4 1015.63,2958.84C1016.5,2958.97 1017.36,2959.12 1018.22,2959.26C1019.39,2951.82 1020.7,2944.3 1022.17,2936.67C1112.87,2464.82 1408.43,1862.21 1487.86,1895.15C1556.53,1923.63 1403.83,2402.34 1186.31,2788.04C1200.27,2764.34 1214.5,2740.82 1229.01,2717.48C1323.46,2565.64 1414.71,2429.52 1558.58,2277.78C1583.21,2251.8 1609.38,2225.37 1637.38,2198.34C1647.75,2154.02 1658.71,2111.02 1678.81,2064.47C1833.51,1705.99 2173.68,1279.69 2230.94,1319.76C2272.55,1348.87 2134.24,1602.99 1946.4,1842.37C1998.5,1812.39 2050.78,1798.28 2097.44,1799.66C2104.55,1791.19 2111.99,1782.73 2119.81,1774.25C2470.09,1394.21 3081.77,1010.69 3135.74,1085.82C3187.09,1157.31 2684.12,1575.58 2228.22,1796.54L2216.53,1805.76C2207.95,1812.52 2198.65,1819.84 2188.87,1827.61C2199.07,1834.53 2208.46,1842.71 2216.87,1852.17C2288.7,1933 2252.98,2082.03 2137.09,2185.02C2135.23,2186.67 2133.36,2188.31 2131.48,2189.91C2182.17,2172.9 2216.18,2169.94 2225.67,2184.89C2267.65,2251.06 1788.5,2602.96 1374.43,2768.56C1350.5,2778.13 1328.38,2791.19 1307.42,2806.35C1270.88,2866.45 1236.2,2927.85 1203.47,2990.49C1185.27,3025.34 1167.66,3060.56 1150.68,3096.16C1164.37,3140.76 1168.64,3192.77 1160.88,3246.97C1144.08,3364.34 1076.03,3455.97 997.06,3478.68C963.77,3579.61 935.19,3682.85 911.6,3788.17C1119.73,3383.51 1463.95,2966.25 1527.1,3010.6C1595.47,3058.62 1267.29,3600.88 927.1,3933.08C904.45,3955.2 886.04,3980.89 870.06,4008.51C863.6,4050.62 857.91,4093.03 853.03,4135.7C879.7,4123.48 907.81,4119.85 934.92,4126.94C1003.56,4144.88 1027.31,4221.96 1029.98,4318.62C1074.18,4189.62 1118.35,4108.59 1148.89,4115.39C1230.44,4133.56 1134.99,4760.17 948,5197.33C935.38,5226.84 928.2,5258.07 924.04,5290.16C934.12,5332.21 945,5373.97 956.64,5415.43C978.79,5391.53 1006.15,5376.21 1036.81,5372.97C1105.49,5365.69 1154.97,5423.2 1192.32,5506.86C1184.55,5374.31 1194.53,5285.31 1224.87,5280C1307.17,5265.61 1458.55,5881.11 1452.9,6356.56C1452.35,6402.58 1463.49,6447.58 1478.76,6491.98C1515.65,6542.74 1553.91,6592.44 1593.49,6641.01C1789.58,6881.67 2017.91,7094.66 2271.71,7272.43C1956.82,6923.06 1669.36,6391.39 1738.26,6347.67C1808.8,6302.91 2184,6813.77 2360.56,7255.25C2368.08,7274.05 2377.61,7291.79 2388.57,7308.77C2382.7,7262.07 2393.73,7219.11 2423.39,7189.65C2486.88,7126.57 2668.44,7216.55 2716.94,7289.28C2765.43,7362.01 2800.04,7401.32 2784.91,7470.32C2860.92,7544.12 2933.51,7607.82 3026.39,7665.84C3187.45,7724.35 3347.52,7767.33 3515.08,7800.3C3526.92,7802.63 3535.25,7812.76 3535.25,7824.83L3535.25,7889.62C3535.25,7897.38 3532.08,7904.06 3526.07,7908.98C3520.06,7913.89 3512.88,7915.67 3505.27,7914.12C3213.1,7854.73 2948.02,7764.79 2680.31,7629.51L2680.28,7629.53ZM6319.71,7629.53C6052,7764.81 5786.93,7854.74 5494.76,7914.14C5487.15,7915.69 5479.97,7913.91 5473.96,7909C5467.95,7904.09 5464.78,7897.41 5464.78,7889.64L5464.78,7824.85C5464.78,7812.78 5473.11,7802.65 5484.95,7800.32C5652.51,7767.35 5812.57,7724.38 5973.64,7665.86C6066.52,7607.84 6139.11,7544.14 6215.12,7470.34C6199.99,7401.34 6234.6,7362.03 6283.09,7289.3C6331.59,7216.57 6513.15,7126.6 6576.64,7189.67C6606.3,7219.13 6617.33,7262.1 6611.46,7308.79C6622.42,7291.81 6631.96,7274.06 6639.47,7255.27C6816.03,6813.79 7191.23,6302.92 7261.77,6347.69C7330.66,6391.4 7043.2,6923.08 6728.32,7272.45C6982.12,7094.68 7210.45,6881.69 7406.54,6641.03C7446.11,6592.46 7484.37,6542.77 7521.27,6492C7536.54,6447.6 7547.68,6402.6 7547.13,6356.58C7541.48,5881.14 7692.86,5265.64 7775.16,5280.02C7805.5,5285.33 7815.48,5374.33 7807.71,5506.88C7845.06,5423.23 7894.54,5365.71 7963.22,5372.99C7993.89,5376.24 8021.25,5391.56 8043.39,5415.45C8055.04,5373.99 8065.91,5332.23 8075.99,5290.18C8071.83,5258.09 8064.65,5226.86 8052.03,5197.35C7865.04,4760.19 7769.59,4133.57 7851.14,4115.41C7881.69,4108.61 7925.85,4189.63 7970.05,4318.64C7972.72,4221.98 7996.48,4144.9 8065.11,4126.96C8092.22,4119.87 8120.33,4123.5 8147,4135.72C8142.12,4093.04 8136.44,4050.64 8129.97,4008.53C8113.99,3980.91 8095.58,3955.22 8072.93,3933.1C7732.75,3600.9 7404.56,3058.64 7472.93,3010.62C7536.07,2966.27 7880.29,3383.53 8088.43,3788.19C8064.84,3682.88 8036.25,3579.63 8002.97,3478.7C7924,3455.99 7855.95,3364.36 7839.15,3246.99C7831.39,3192.79 7835.67,3140.78 7849.35,3096.18C7832.37,3060.58 7814.76,3025.35 7796.56,2990.51C7763.83,2927.87 7729.15,2866.47 7692.61,2806.37C7671.65,2791.2 7649.53,2778.15 7625.6,2768.58C7211.53,2602.98 6732.38,2251.08 6774.36,2184.91C6783.84,2169.96 6817.86,2172.93 6868.55,2189.93C6866.67,2188.32 6864.8,2186.69 6862.94,2185.04C6747.05,2082.05 6711.33,1933.02 6783.16,1852.19C6791.57,1842.73 6800.96,1834.55 6811.16,1827.63C6801.38,1819.86 6792.08,1812.54 6783.5,1805.78L6771.81,1796.56C6315.91,1575.6 5812.94,1157.32 5864.29,1085.84C5918.26,1010.71 6529.94,1394.23 6880.22,1774.27C6888.04,1782.75 6895.47,1791.21 6902.59,1799.68C6949.25,1798.3 7001.53,1812.42 7053.63,1842.39C6865.8,1603 6727.49,1348.89 6769.09,1319.78C6826.34,1279.71 7166.51,1706.01 7321.22,2064.49C7341.31,2111.03 7352.27,2154.03 7362.65,2198.36C7390.65,2225.39 7416.81,2251.81 7441.45,2277.8C7585.32,2429.55 7676.58,2565.67 7771.02,2717.5C7785.53,2740.83 7799.76,2764.35 7813.72,2788.06C7596.2,2402.36 7443.5,1923.65 7512.17,1895.17C7591.61,1862.23 7887.17,2464.84 7977.86,2936.69C7979.33,2944.32 7980.64,2951.84 7981.81,2959.28C7982.67,2959.14 7983.53,2958.99 7984.4,2958.86C8085.33,2944.42 8180.94,3039.47 8204.64,3194.7C8222.77,3313.39 8187.26,3410.58 8124.42,3456.22C8132.69,3488.4 8140.32,3521.2 8147.05,3554.3C8148.28,3560.34 8149.48,3566.38 8150.64,3572.44L8151.86,3576.71C8192.54,3719.5 8224.11,3866.12 8245.9,4015.88C8197.07,3582.27 8239.18,3099.62 8312.17,3099.62C8398.17,3099.62 8440.36,3769.48 8343.4,4240.08C8328.79,4311.02 8305.14,4368.46 8280.57,4429.51C8281.18,4455.99 8281.5,4482.55 8281.5,4509.18L8281.39,4509.29L8281.37,4512.62C8281.49,4804.13 8244.09,5091.72 8171.61,5369.15C8290.38,4940.95 8523.02,4490.47 8592,4519.08C8671.44,4552.02 8453.83,5186.95 8184.01,5584.52C8150.35,5634.13 8114.51,5672.82 8077.03,5711.32C8066.23,5736.98 8052.34,5759.71 8036.24,5778.49C7965.38,5954.29 7879.71,6124.28 7779.94,6286.64C7767.89,6315.9 7753.99,6346.22 7737.74,6377.83L7725.86,6371.78C7689.1,6427.8 7650.63,6482.84 7610.46,6536.82C7882.52,6195.77 8253.41,5884.43 8305.02,5936.03C8361.47,5992.48 7983.02,6430.41 7607.4,6704.27C7677.81,6687.4 7737.6,6693.05 7772.25,6740.26C7825.21,6812.42 7784.27,6932.46 7680.81,7008.37C7577.36,7084.28 7450.57,7087.32 7397.62,7015.17C7292.04,7030.21 7107.93,7165.46 6938.59,7229.98C6866.26,7287.87 6791.61,7343.23 6714.78,7395.74C7077.56,7208.96 7477.81,7087.54 7503.77,7150.15C7536.71,7229.59 6934.1,7525.15 6462.25,7615.84C6411.72,7625.56 6365.73,7628.45 6319.74,7629.56L6319.71,7629.53ZM7054.03,2274.51C7211.59,2358.93 7409.22,2488.49 7576.52,2628.64C7482.98,2495.11 7379.85,2369.07 7268.21,2251.43C7250.24,2237.63 7232.08,2224.18 7213.87,2211.12C7210.49,2215.97 7206.82,2220.66 7202.83,2225.14C7167.82,2264.54 7113.71,2280.46 7054.02,2274.51L7054.03,2274.51ZM7240.09,2086.48C7265.26,2108.3 7289.19,2129.66 7311.98,2150.63C7296.68,2120.94 7278.84,2093.19 7255.35,2070.17C7246.95,2061.94 7238.56,2053.54 7230.18,2045.01C7234.81,2058.99 7238.11,2072.86 7240.09,2086.48ZM7921.37,2985.57C7922.87,2984.44 7924.39,2983.34 7925.93,2982.27C7918.13,2962.62 7908.77,2943.75 7897.2,2926.03C7878.4,2897.21 7859.91,2867.3 7841.79,2836.65C7869.51,2885.55 7896.05,2935.21 7921.37,2985.58L7921.37,2985.57ZM6158.44,7592.14C6197.68,7575.06 6236.53,7557.21 6274.98,7538.63C6265.56,7533.45 6256.88,7527.03 6249.12,7519.32C6254.18,7518.72 6215.82,7549.58 6158.44,7592.14ZM7397.5,6830.21C7380.36,6837.83 7363.12,6845.15 7345.62,6852.6C7265.48,6938.31 7181.04,7020.93 7092.61,7099.77C7184.55,7050.31 7267.65,6993.25 7371.73,6938.44C7369.59,6903.02 7377.97,6864.57 7397.5,6830.21ZM7783.88,5727.7C7756.96,5909.45 7710.15,6120.1 7646.81,6306.68C7696.48,6227.94 7743,6147.03 7786.22,6064.15C7793.73,6029.73 7800.02,5996.01 7806.29,5962.38C7816.12,5909.69 7825.91,5857.23 7840.1,5802.54C7816.76,5783.73 7796.88,5757.91 7783.87,5727.7L7783.88,5727.7ZM7890.32,5845.87C7892.36,5841.18 7894.38,5836.49 7896.39,5831.79L7893.89,5831.11C7892.67,5836.04 7891.48,5840.96 7890.32,5845.87ZM8100.91,5609.43C8101.06,5607.37 8101.19,5605.3 8101.29,5603.25C8122.6,5540.58 8142.08,5477.27 8159.7,5413.4C8150.39,5449.28 8141.94,5484.89 8134.54,5519.91C8127.93,5551.23 8115.9,5580.84 8100.91,5609.43ZM8025.87,4508.01C8068.92,4675.96 8105.8,4876.72 8121.61,5066.56C8132.51,5001.98 8141.55,4936.83 8148.68,4871.17C8142.94,4814.46 8133.57,4761.99 8124.24,4709.76C8115.19,4659.09 8106.17,4608.63 8100.36,4554.68C8073.6,4545.9 8047.55,4529.98 8025.88,4508.01L8025.87,4508.01ZM8166.43,4619.94C8167.08,4600.29 8167.55,4580.61 8167.86,4560.89C8164.73,4561.41 8161.57,4561.8 8158.37,4562.08C8160.7,4581.72 8163.45,4600.95 8166.44,4619.94L8166.43,4619.94ZM7547.3,6619.01C7528.44,6642.81 7509.25,6666.39 7489.71,6689.74C7470.18,6713.08 7450.34,6736.24 7430.21,6759.2C7456.62,6737.61 7480.56,6713.8 7499.65,6685.92C7514.89,6663.66 7530.83,6641.33 7547.3,6619.01ZM8258.79,4114.63C8266.02,4177.11 8271.56,4240.09 8275.35,4303.54C8279.09,4268.48 8279.39,4233.62 8272.97,4199.33C8267.78,4171.63 8263.07,4143.33 8258.79,4114.63ZM1769.81,2045C1761.44,2053.53 1753.05,2061.93 1744.64,2070.16C1721.15,2093.18 1703.31,2120.93 1688.01,2150.62C1710.8,2129.65 1734.73,2108.29 1759.9,2086.47C1761.87,2072.85 1765.17,2058.98 1769.81,2045ZM1731.78,2251.42C1620.14,2369.06 1517,2495.1 1423.47,2628.63C1590.77,2488.48 1788.4,2358.93 1945.96,2274.5C1886.27,2280.45 1832.16,2264.53 1797.15,2225.13C1793.16,2220.65 1789.49,2215.96 1786.11,2211.11C1767.9,2224.17 1749.74,2237.62 1731.77,2251.42L1731.78,2251.42ZM1078.62,2985.56C1077.12,2984.43 1075.6,2983.33 1074.06,2982.26C1081.86,2962.61 1091.22,2943.74 1102.79,2926.02C1121.59,2897.2 1140.08,2867.29 1158.2,2836.64C1130.48,2885.54 1103.94,2935.2 1078.62,2985.57L1078.62,2985.56ZM2725.01,7538.63C2763.45,7557.21 2802.31,7575.06 2841.55,7592.14C2784.17,7549.58 2745.81,7518.72 2750.87,7519.32C2743.11,7527.03 2734.43,7533.45 2725.01,7538.63ZM1907.38,7099.77C1818.95,7020.93 1734.51,6938.32 1654.37,6852.6C1636.87,6845.15 1619.63,6837.82 1602.49,6830.21C1622.02,6864.57 1630.4,6903.02 1628.26,6938.44C1732.34,6993.24 1815.44,7050.31 1907.38,7099.77ZM1103.6,5831.79C1105.62,5836.49 1107.64,5841.18 1109.67,5845.87C1108.51,5840.96 1107.32,5836.04 1106.1,5831.11L1103.6,5831.79ZM1213.77,6064.16C1256.98,6147.03 1303.5,6227.95 1353.18,6306.69C1289.85,6120.11 1243.03,5909.46 1216.11,5727.71C1203.11,5757.93 1183.22,5783.75 1159.88,5802.55C1174.08,5857.24 1183.86,5909.7 1193.69,5962.39C1199.97,5996.02 1206.25,6029.74 1213.76,6064.16L1213.77,6064.16ZM899.08,5609.43C898.93,5607.37 898.8,5605.3 898.7,5603.25C877.39,5540.58 857.91,5477.27 840.29,5413.4C849.6,5449.28 858.05,5484.89 865.45,5519.91C872.06,5551.23 884.09,5580.84 899.08,5609.43ZM832.14,4560.89C832.44,4580.61 832.92,4600.29 833.57,4619.94C836.56,4600.94 839.31,4581.72 841.64,4562.08C838.44,4561.81 835.27,4561.41 832.15,4560.89L832.14,4560.89ZM851.32,4871.17C858.45,4936.82 867.49,5001.97 878.39,5066.56C894.19,4876.72 931.08,4675.96 974.13,4508.01C952.47,4529.97 926.41,4545.9 899.65,4554.68C893.84,4608.63 884.82,4659.09 875.77,4709.76C866.44,4761.99 857.06,4814.46 851.33,4871.17L851.32,4871.17ZM1569.79,6759.21C1549.65,6736.24 1529.82,6713.09 1510.29,6689.75C1490.75,6666.4 1471.56,6642.82 1452.7,6619.02C1469.17,6641.34 1485.11,6663.68 1500.35,6685.93C1519.44,6713.81 1543.37,6737.62 1569.79,6759.21ZM724.65,4303.55C728.44,4240.1 733.98,4177.11 741.21,4114.64C736.93,4143.34 732.21,4171.64 727.03,4199.34C720.62,4233.63 720.91,4268.49 724.65,4303.55ZM4500.04,7455.92C4525.66,7455.92 4553.49,7435.59 4553.49,7409.09L4546.51,1605.93C4546.51,1580.14 4525.63,1559.09 4500.01,1559.09C4474.44,1559.09 4453.51,1580.17 4453.51,1605.93L4446.6,7409.09C4446.6,7435.55 4474.47,7455.92 4500.04,7455.92ZM4167.85,7428.67C4193.47,7428.67 4221.46,7408.34 4221.67,7381.84L4259.67,1622.29C4259.87,1596.49 4239.16,1575.44 4213.54,1575.44C4187.96,1575.44 4166.87,1596.52 4166.67,1622.29L4114.78,7381.84C4114.58,7408.3 4142.28,7428.67 4167.86,7428.67L4167.85,7428.67ZM4832.15,7428.67C4806.53,7428.67 4778.54,7408.34 4778.33,7381.84L4740.33,1622.29C4740.13,1596.49 4760.84,1575.44 4786.46,1575.44C4812.04,1575.44 4833.13,1596.52 4833.33,1622.29L4885.22,7381.84C4885.42,7408.3 4857.72,7428.67 4832.14,7428.67L4832.15,7428.67ZM7154.29,4499.99C7154.29,5760.96 6260.2,6824.85 5075.23,7089.72L5090.28,7963.27C5090.45,7973.06 5086.77,7981.53 5079.33,7988.51C5071.89,7995.49 5062.76,7999.02 5052.14,7999.02L3947.87,7999.02C3937.26,7999.02 3928.13,7995.49 3920.68,7988.51C3913.24,7981.53 3909.56,7973.06 3909.73,7963.27L3924.78,7089.76C2739.68,6824.98 1845.72,5761.14 1845.72,4499.99C1845.72,3208.19 2781.11,2122.81 4014.29,1893.71L4024.38,1307.97C4024.71,1288.78 4041.72,1273.34 4062.52,1273.34L4937.46,1273.34C4958.26,1273.34 4975.27,1288.79 4975.6,1307.97L4985.66,1892.04C6213.53,2122.68 7154.28,3209.4 7154.28,4499.99L7154.29,4499.99ZM4008.28,2242.55C3762.34,2423.68 3582.48,2720.57 3464.97,2989.65C3457.51,3006.74 3465.1,3026.73 3482.04,3034.55C3645.81,3110.14 3816.63,3166.68 3991.73,3203.83L4008.29,2242.55L4008.28,2242.55ZM5008.27,3203.8C5183.33,3166.65 5354.11,3110.13 5517.84,3034.55C5534.78,3026.73 5542.38,3006.75 5534.91,2989.65C5417.41,2720.58 5237.59,2423.77 4991.71,2242.64L5008.27,3203.8ZM5028.68,4388.42L5788.11,4388.42C5797.76,4388.42 5806.07,4384.9 5812.78,4377.97C5819.48,4371.03 5822.74,4362.61 5822.42,4352.97C5809.44,3957.79 5744.42,3588.28 5639.43,3265.71C5636.3,3256.1 5629.9,3249.02 5620.65,3244.93C5611.39,3240.84 5601.85,3240.89 5592.64,3245.06C5406.36,3329.35 5211.63,3391.35 5012.18,3430.44L5028.69,4388.43L5028.68,4388.42ZM5049.16,5577.07C5235.69,5616.4 5417.87,5675.86 5592.63,5754.93C5601.85,5759.1 5611.39,5759.15 5620.64,5755.06C5629.89,5750.97 5636.29,5743.9 5639.42,5734.28C5744.41,5411.71 5809.44,5042.19 5822.41,4647.01C5822.73,4637.36 5819.48,4628.95 5812.77,4622.01C5806.06,4615.08 5797.75,4611.55 5788.1,4611.55L5032.52,4611.55L5049.16,5577.07ZM5068.43,6695.35C5275.38,6512.97 5429.99,6250.6 5534.91,6010.34C5542.37,5993.25 5534.78,5973.26 5517.84,5965.43C5368.12,5896.32 5212.49,5843.15 5053.11,5806.14L5068.43,6695.34L5068.43,6695.35ZM3946.89,5806.11C3787.48,5843.11 3631.84,5896.3 3482.05,5965.43C3465.11,5973.25 3457.51,5993.24 3464.98,6010.34C3569.91,6250.63 3724.56,6513.06 3931.57,6695.45L3946.89,5806.11ZM3967.47,4611.55L3211.78,4611.55C3202.13,4611.55 3193.82,4615.07 3187.11,4622.01C3180.41,4628.95 3177.15,4637.36 3177.47,4647.01C3190.45,5042.2 3255.47,5411.71 3360.46,5734.28C3363.59,5743.9 3369.99,5750.98 3379.24,5755.06C3388.5,5759.14 3398.04,5759.1 3407.25,5754.93C3582.05,5675.85 3764.27,5616.38 3950.84,5577.05L3967.47,4611.56L3967.47,4611.55ZM3987.82,3430.44C3788.34,3391.35 3593.59,3329.34 3407.25,3245.04C3398.03,3240.87 3388.49,3240.82 3379.24,3244.91C3369.99,3249 3363.59,3256.08 3360.46,3265.69C3255.47,3588.26 3190.45,3957.78 3177.47,4352.95C3177.15,4362.6 3180.4,4371.02 3187.11,4377.95C3193.82,4384.88 3202.13,4388.4 3211.78,4388.4L3971.32,4388.4L3987.82,3430.43L3987.82,3430.44ZM6888.94,4611.55L6080.03,4611.55C6061.49,4611.55 6046.3,4626.29 6045.72,4644.81C6032.1,5082.75 5957.09,5492.76 5835.58,5848.55C5830.27,5864.1 5836.43,5880.81 5850.56,5889.18C5984.07,5968.27 6110.06,6058.72 6227.21,6159.21C6241.17,6171.19 6262.1,6170.04 6274.65,6156.59C6648.31,5756.46 6888.22,5229.84 6923.21,4647.94C6923.8,4638.14 6920.66,4629.5 6913.93,4622.35C6907.21,4615.2 6898.75,4611.55 6888.94,4611.55ZM6059.05,6308.37C5970.61,6234.37 5876.8,6166.55 5778.32,6105.55C5769.6,6100.14 5759.97,6098.9 5750.17,6101.92C5740.36,6104.93 5733.09,6111.36 5728.91,6120.73C5637.51,6325.35 5520.72,6525.17 5374.12,6696C5363.67,6708.18 5362.93,6725.39 5372.31,6738.41C5381.68,6751.43 5398.23,6756.19 5413.09,6750.15C5649.21,6654.24 5866.83,6522.24 6059.09,6361C6067.15,6354.24 6071.37,6345.19 6071.36,6334.67C6071.35,6324.16 6067.12,6315.11 6059.06,6308.36L6059.05,6308.37ZM3625.81,6696.05C3479.19,6525.22 3362.37,6325.37 3270.98,6120.74C3266.79,6111.37 3259.53,6104.94 3249.72,6101.93C3239.91,6098.91 3230.29,6100.15 3221.57,6105.56C3123.07,6166.56 3029.26,6234.41 2940.81,6308.41C2932.75,6315.16 2928.51,6324.21 2928.51,6334.72C2928.5,6345.24 2932.72,6354.29 2940.78,6361.04C3133.06,6522.29 3350.7,6654.3 3586.86,6750.21C3601.72,6756.25 3618.26,6751.48 3627.63,6738.47C3637.01,6725.45 3636.28,6708.23 3625.82,6696.05L3625.81,6696.05ZM2772.64,6159.25C2889.79,6058.75 3015.81,5968.27 3149.33,5889.18C3163.46,5880.81 3169.63,5864.1 3164.32,5848.55C3042.81,5492.76 2967.79,5082.76 2954.17,4644.81C2953.6,4626.29 2938.39,4611.55 2919.86,4611.55L2110.88,4611.55C2101.06,4611.55 2092.61,4615.2 2085.88,4622.35C2079.15,4629.5 2076.01,4638.14 2076.6,4647.94C2111.59,5229.85 2351.52,5756.5 2725.19,6156.63C2737.75,6170.08 2758.66,6171.23 2772.63,6159.25L2772.64,6159.25ZM2110.87,4388.42L2919.85,4388.42C2938.39,4388.42 2953.59,4373.69 2954.16,4355.16C2967.78,3917.22 3042.79,3507.21 3164.3,3151.43C3169.61,3135.88 3163.45,3119.17 3149.32,3110.8C3015.79,3031.7 2889.78,2941.23 2772.62,2840.72C2758.66,2828.74 2737.73,2829.89 2725.18,2843.34C2351.51,3243.49 2111.58,3770.12 2076.6,4352.03C2076.01,4361.83 2079.16,4370.47 2085.88,4377.62C2092.61,4384.77 2101.06,4388.42 2110.88,4388.42L2110.87,4388.42ZM2940.78,2691.57C3029.24,2765.58 3123.06,2833.43 3221.56,2894.44C3230.28,2899.85 3239.91,2901.09 3249.72,2898.07C3259.53,2895.06 3266.79,2888.63 3270.98,2879.26C3362.38,2674.61 3479.22,2474.75 3625.86,2303.9C3636.31,2291.73 3637.05,2274.51 3627.67,2261.49C3618.3,2248.47 3601.75,2243.7 3586.89,2249.73C3350.71,2345.64 3133.04,2477.66 2940.74,2638.94C2932.68,2645.7 2928.46,2654.75 2928.47,2665.26C2928.48,2675.78 2932.71,2684.82 2940.77,2691.57L2940.78,2691.57ZM5374.08,2303.93C5520.7,2474.77 5637.52,2674.63 5728.92,2879.26C5733.11,2888.63 5740.37,2895.06 5750.18,2898.07C5759.99,2901.09 5769.61,2899.85 5778.34,2894.44C5876.82,2833.44 5970.64,2765.61 6059.08,2691.61C6067.14,2684.86 6071.37,2675.82 6071.38,2665.3C6071.38,2654.78 6067.17,2645.73 6059.11,2638.97C5866.83,2477.71 5649.2,2345.69 5413.04,2249.77C5398.18,2243.73 5381.64,2248.5 5372.26,2261.52C5362.88,2274.54 5363.62,2291.76 5374.07,2303.93L5374.08,2303.93ZM6227.24,2840.76C6110.09,2941.26 5984.09,3031.72 5850.58,3110.81C5836.44,3119.18 5830.28,3135.89 5835.59,3151.44C5957.09,3507.23 6032.11,3917.22 6045.73,4355.17C6046.31,4373.69 6061.51,4388.43 6080.04,4388.43L6888.95,4388.43C6898.76,4388.43 6907.22,4384.78 6913.95,4377.63C6920.68,4370.48 6923.82,4361.83 6923.23,4352.04C6888.25,3770.15 6648.33,3243.52 6274.69,2843.39C6262.13,2829.94 6241.21,2828.79 6227.25,2840.77L6227.24,2840.76ZM3859.15,1012.16L5140.88,1012.16C5161.89,1012.16 5179.03,995.02 5179.03,974.01L5179.03,822.14C5179.03,801.13 5161.89,783.99 5140.88,783.99L3859.15,783.99C3838.14,783.99 3821,801.13 3821,822.14L3821,974.01C3821,995.02 3838.13,1012.16 3859.15,1012.16ZM3935.45,1109.19L3935.45,1164.99C3935.45,1192.22 3957.73,1214.45 3984.93,1214.45L5015.1,1214.45C5042.32,1214.45 5064.59,1192.22 5064.59,1164.99L5064.59,1109.19C5064.59,1088.18 5047.46,1071.04 5026.44,1071.04L3973.59,1071.04C3952.58,1071.04 3935.44,1088.18 3935.44,1109.19L3935.45,1109.19Z" style="fill:rgb(102,2,60);"/>
    </g>
</svg>
