<?xml version="1.0" encoding="UTF-8"?>
<!DOCTYPE svg PUBLIC "-//W3C//DTD SVG 1.1//EN" "http://www.w3.org/Graphics/SVG/1.1/DTD/svg11.dtd">
<!-- Creator: CorelDRAW -->
<svg xmlns="http://www.w3.org/2000/svg" xml:space="preserve" width="9in" height="9in" version="1.1" style="shape-rendering:geometricPrecision; text-rendering:geometricPrecision; image-rendering:optimizeQuality; fill-rule:evenodd; clip-rule:evenodd"
viewBox="0 0 9000 9000"
 xmlns:xlink="http://www.w3.org/1999/xlink"
 xmlns:xodm="http://www.corel.com/coreldraw/odm/2003">
 <defs>
  <style type="text/css">
   <![CDATA[
    .fil0 {fill:#66023C}
    .fil1 {fill:white}
   ]]>
  </style>
 </defs>
 <g id="Layer_x0020_1">
  <metadata id="CorelCorpID_0Corel-Layer"/>
  <circle id="Disc" class="fil0" cx="4500" cy="4500" r="4281.97"/>
  <path id="Logo" class="fil1" d="M3906.07 8058.07c-25.24,2.16 -45.22,23.48 -45.22,49.29l0 70.5c0,21.01 17.13,38.15 38.15,38.15l1202.02 0c21.01,0 38.15,-17.13 38.15,-38.15l0 -70.5c0,-26.68 -21.38,-48.57 -47.82,-49.44l0 0.15 -1185.26 0zm-1225.79 -428.54c-45.99,-1.1 -91.98,-3.99 -142.5,-13.71 -471.85,-90.7 -1074.46,-386.26 -1041.52,-465.69 25.96,-62.61 426.21,58.81 788.99,245.59 -76.84,-52.5 -151.49,-107.86 -223.81,-165.76 -169.33,-64.52 -353.45,-199.77 -459.03,-214.81 -52.95,72.15 -179.74,69.11 -283.19,-6.8 -103.45,-75.92 -144.39,-195.95 -91.44,-268.11 34.64,-47.21 94.43,-52.86 164.85,-35.99 -375.62,-273.86 -754.07,-711.8 -697.62,-768.24 51.6,-51.6 422.49,259.74 694.56,600.79 -40.17,-53.98 -78.65,-109.02 -115.4,-165.04l-11.88 6.05c-16.24,-31.61 -30.15,-61.93 -42.2,-91.19 -99.78,-162.35 -185.44,-332.34 -256.3,-508.15 -16.09,-18.78 -29.98,-41.52 -40.79,-67.17 -37.48,-38.5 -73.32,-77.19 -106.98,-126.8 -269.82,-397.57 -487.43,-1032.5 -407.99,-1065.44 68.98,-28.61 301.62,421.87 420.39,850.07 -72.47,-277.43 -109.88,-565.02 -109.76,-856.53l-0.02 -3.33 -0.11 -0.11c0,-26.63 0.31,-53.19 0.93,-79.67 -24.57,-61.05 -48.23,-118.49 -62.83,-189.43 -96.96,-470.61 -54.77,-1140.46 31.23,-1140.46 72.99,0 115.1,482.65 66.27,916.26 21.8,-149.77 53.37,-296.38 94.04,-439.17l1.22 -4.27c1.17,-6.06 2.36,-12.1 3.59,-18.14 6.73,-33.09 14.36,-65.9 22.63,-98.08 -62.84,-45.64 -98.35,-142.83 -80.22,-261.52 23.7,-155.22 119.31,-250.28 220.24,-235.84 0.87,0.13 1.73,0.28 2.59,0.42 1.17,-7.44 2.48,-14.96 3.95,-22.59 90.7,-471.85 386.26,-1074.46 465.69,-1041.52 68.67,28.48 -84.03,507.19 -301.55,892.89 13.96,-23.7 28.19,-47.22 42.7,-70.56 94.45,-151.84 185.7,-287.96 329.57,-439.7 24.63,-25.98 50.8,-52.41 78.8,-79.44 10.37,-44.32 21.33,-87.32 41.43,-133.87 154.7,-358.48 494.87,-784.78 552.13,-744.71 41.61,29.11 -96.7,283.23 -284.54,522.61 52.1,-29.98 104.38,-44.09 151.04,-42.71 7.11,-8.47 14.55,-16.93 22.37,-25.41 350.28,-380.04 961.96,-763.56 1015.93,-688.43 51.35,71.49 -451.62,489.76 -907.52,710.72l-11.69 9.22c-8.58,6.76 -17.88,14.08 -27.66,21.85 10.2,6.92 19.59,15.1 28,24.56 71.83,80.83 36.11,229.86 -79.78,332.85 -1.86,1.65 -3.73,3.29 -5.61,4.89 50.69,-17.01 84.7,-19.97 94.19,-5.02 41.98,66.17 -437.17,418.07 -851.24,583.67 -23.93,9.57 -46.05,22.63 -67.01,37.79 -36.54,60.1 -71.22,121.5 -103.95,184.14 -18.2,34.85 -35.81,70.07 -52.79,105.67 13.69,44.6 17.96,96.61 10.2,150.81 -16.8,117.37 -84.85,209 -163.82,231.71 -33.29,100.93 -61.87,204.17 -85.46,309.49 208.13,-404.66 552.35,-821.92 615.5,-777.57 68.37,48.02 -259.81,590.28 -600,922.48 -22.65,22.12 -41.06,47.81 -57.04,75.43 -6.46,42.11 -12.15,84.52 -17.03,127.19 26.67,-12.22 54.78,-15.85 81.89,-8.76 68.64,17.94 92.39,95.02 95.06,191.68 44.2,-129 88.37,-210.03 118.91,-203.23 81.55,18.17 -13.9,644.78 -200.89,1081.94 -12.62,29.51 -19.8,60.74 -23.96,92.83 10.08,42.05 20.96,83.81 32.6,125.27 22.15,-23.9 49.51,-39.22 80.17,-42.46 68.68,-7.28 118.16,50.23 155.51,133.89 -7.77,-132.55 2.21,-221.55 32.55,-226.86 82.3,-14.39 233.68,601.11 228.03,1076.56 -0.55,46.02 10.59,91.02 25.86,135.42 36.89,50.76 75.15,100.46 114.73,149.03 196.09,240.66 424.42,453.65 678.22,631.42 -314.89,-349.37 -602.35,-881.04 -533.45,-924.76 70.54,-44.76 445.74,466.1 622.3,907.58 7.52,18.8 17.05,36.54 28.01,53.52 -5.87,-46.7 5.16,-89.66 34.82,-119.12 63.49,-63.08 245.05,26.9 293.55,99.63 48.49,72.73 83.1,112.04 67.97,181.04 76.01,73.8 148.6,137.5 241.48,195.52 161.06,58.51 321.13,101.49 488.69,134.46 11.84,2.33 20.17,12.46 20.17,24.53l0 64.79c0,7.76 -3.17,14.44 -9.18,19.36 -6.01,4.91 -13.19,6.69 -20.8,5.14 -292.17,-59.39 -557.25,-149.33 -824.96,-284.61zm3639.43 0c-267.71,135.28 -532.78,225.21 -824.95,284.61 -7.61,1.55 -14.79,-0.23 -20.8,-5.14 -6.01,-4.91 -9.18,-11.59 -9.18,-19.36l0 -64.79c0,-12.07 8.33,-22.2 20.17,-24.53 167.56,-32.97 327.62,-75.94 488.69,-134.46 92.88,-58.02 165.47,-121.72 241.48,-195.52 -15.13,-69 19.48,-108.31 67.97,-181.04 48.5,-72.73 230.06,-162.7 293.55,-99.63 29.66,29.46 40.69,72.43 34.82,119.12 10.96,-16.98 20.5,-34.73 28.01,-53.52 176.56,-441.48 551.76,-952.35 622.3,-907.58 68.89,43.71 -218.57,575.39 -533.45,924.76 253.8,-177.77 482.13,-390.76 678.22,-631.42 39.57,-48.57 77.83,-98.26 114.73,-149.03 15.27,-44.4 26.41,-89.4 25.86,-135.42 -5.65,-475.44 145.73,-1090.94 228.03,-1076.56 30.34,5.31 40.32,94.31 32.55,226.86 37.35,-83.65 86.83,-141.17 155.51,-133.89 30.67,3.25 58.03,18.57 80.17,42.46 11.65,-41.46 22.52,-83.22 32.6,-125.27 -4.16,-32.09 -11.34,-63.32 -23.96,-92.83 -186.99,-437.16 -282.44,-1063.78 -200.89,-1081.94 30.55,-6.8 74.71,74.22 118.91,203.23 2.67,-96.66 26.43,-173.74 95.06,-191.68 27.11,-7.09 55.22,-3.46 81.89,8.76 -4.88,-42.68 -10.56,-85.08 -17.03,-127.19 -15.98,-27.62 -34.39,-53.31 -57.04,-75.43 -340.18,-332.2 -668.37,-874.46 -600,-922.48 63.14,-44.35 407.36,372.91 615.5,777.57 -23.59,-105.31 -52.18,-208.56 -85.46,-309.49 -78.97,-22.71 -147.02,-114.34 -163.82,-231.71 -7.76,-54.2 -3.48,-106.21 10.2,-150.81 -16.98,-35.6 -34.59,-70.83 -52.79,-105.67 -32.73,-62.64 -67.41,-124.04 -103.95,-184.14 -20.96,-15.17 -43.08,-28.22 -67.01,-37.79 -414.07,-165.6 -893.22,-517.5 -851.24,-583.67 9.48,-14.95 43.5,-11.98 94.19,5.02 -1.88,-1.61 -3.75,-3.24 -5.61,-4.89 -115.89,-102.99 -151.61,-252.02 -79.78,-332.85 8.41,-9.46 17.8,-17.64 28,-24.56 -9.78,-7.77 -19.08,-15.09 -27.66,-21.85l-11.69 -9.22c-455.9,-220.96 -958.87,-639.24 -907.52,-710.72 53.97,-75.13 665.65,308.39 1015.93,688.43 7.82,8.48 15.25,16.94 22.37,25.41 46.66,-1.38 98.94,12.74 151.04,42.71 -187.83,-239.39 -326.14,-493.5 -284.54,-522.61 57.25,-40.07 397.42,386.23 552.13,744.71 20.09,46.54 31.05,89.54 41.43,133.87 28,27.03 54.16,53.45 78.8,79.44 143.87,151.75 235.13,287.87 329.57,439.7 14.51,23.33 28.74,46.85 42.7,70.56 -217.52,-385.7 -370.22,-864.41 -301.55,-892.89 79.44,-32.94 375,569.67 465.69,1041.52 1.47,7.63 2.78,15.15 3.95,22.59 0.86,-0.14 1.72,-0.29 2.59,-0.42 100.93,-14.44 196.54,80.61 220.24,235.84 18.13,118.69 -17.38,215.88 -80.22,261.52 8.27,32.18 15.9,64.98 22.63,98.08 1.23,6.04 2.43,12.08 3.59,18.14l1.22 4.27c40.68,142.79 72.25,289.41 94.04,439.17 -48.83,-433.61 -6.72,-916.26 66.27,-916.26 86,0 128.19,669.86 31.23,1140.46 -14.61,70.94 -38.26,128.38 -62.83,189.43 0.61,26.48 0.93,53.04 0.93,79.67l-0.11 0.11 -0.02 3.33c0.12,291.51 -37.28,579.1 -109.76,856.53 118.77,-428.2 351.41,-878.68 420.39,-850.07 79.44,32.94 -138.17,667.87 -407.99,1065.44 -33.66,49.61 -69.5,88.3 -106.98,126.8 -10.8,25.66 -24.69,48.39 -40.79,67.17 -70.86,175.8 -156.53,345.79 -256.3,508.15 -12.05,29.26 -25.95,59.58 -42.2,91.19l-11.88 -6.05c-36.76,56.02 -75.23,111.06 -115.4,165.04 272.06,-341.05 642.95,-652.39 694.56,-600.79 56.45,56.45 -322,494.38 -697.62,768.24 70.41,-16.87 130.2,-11.22 164.85,35.99 52.96,72.16 12.02,192.2 -91.44,268.11 -103.45,75.91 -230.24,78.95 -283.19,6.8 -105.58,15.04 -289.69,150.29 -459.03,214.81 -72.33,57.89 -146.98,113.25 -223.81,165.76 362.78,-186.78 763.03,-308.2 788.99,-245.59 32.94,79.44 -569.67,375 -1041.52,465.69 -50.53,9.72 -96.52,12.61 -142.51,13.72zm734.32 -5355.02c157.56,84.42 355.19,213.98 522.49,354.13 -93.54,-133.53 -196.67,-259.57 -308.31,-377.21 -17.97,-13.8 -36.13,-27.25 -54.34,-40.31 -3.38,4.85 -7.05,9.54 -11.04,14.02 -35.01,39.4 -89.12,55.32 -148.81,49.37zm186.06 -188.03c25.17,21.82 49.1,43.18 71.89,64.15 -15.3,-29.69 -33.14,-57.44 -56.63,-80.46 -8.4,-8.23 -16.79,-16.63 -25.17,-25.16 4.63,13.98 7.93,27.85 9.91,41.47zm681.28 899.09c1.5,-1.13 3.02,-2.23 4.56,-3.3 -7.8,-19.65 -17.16,-38.52 -28.73,-56.24 -18.8,-28.82 -37.29,-58.73 -55.41,-89.38 27.72,48.9 54.26,98.56 79.58,148.93zm-1762.93 4606.57c39.24,-17.08 78.09,-34.93 116.54,-53.51 -9.42,-5.18 -18.1,-11.6 -25.86,-19.31 5.06,-0.6 -33.3,30.26 -90.68,72.82zm1239.06 -761.93c-17.14,7.62 -34.38,14.94 -51.88,22.39 -80.14,85.71 -164.58,168.33 -253.01,247.17 91.94,-49.46 175.04,-106.52 279.12,-161.33 -2.14,-35.42 6.24,-73.87 25.77,-108.23zm386.38 -1102.51c-26.92,181.75 -73.73,392.4 -137.07,578.98 49.67,-78.74 96.19,-159.65 139.41,-242.53 7.51,-34.42 13.8,-68.14 20.07,-101.77 9.83,-52.69 19.62,-105.15 33.81,-159.84 -23.34,-18.81 -43.22,-44.63 -56.23,-74.84zm106.44 118.17c2.04,-4.69 4.06,-9.38 6.07,-14.08l-2.5 -0.68c-1.22,4.93 -2.41,9.85 -3.57,14.76zm210.59 -236.44c0.15,-2.06 0.28,-4.13 0.38,-6.18 21.31,-62.67 40.79,-125.98 58.41,-189.85 -9.31,35.88 -17.76,71.49 -25.16,106.51 -6.61,31.32 -18.64,60.93 -33.63,89.52zm-75.04 -1101.42c43.05,167.95 79.93,368.71 95.74,558.55 10.9,-64.58 19.94,-129.73 27.07,-195.39 -5.74,-56.71 -15.11,-109.18 -24.44,-161.41 -9.05,-50.67 -18.07,-101.13 -23.88,-155.08 -26.76,-8.78 -52.81,-24.7 -74.48,-46.67zm140.56 111.93c0.65,-19.65 1.12,-39.33 1.43,-59.05 -3.13,0.52 -6.29,0.91 -9.49,1.19 2.33,19.64 5.08,38.87 8.07,57.86zm-619.13 1999.07c-18.86,23.8 -38.05,47.38 -57.59,70.73 -19.53,23.34 -39.37,46.5 -59.5,69.46 26.41,-21.59 50.35,-45.4 69.44,-73.28 15.24,-22.26 31.18,-44.59 47.65,-66.91zm711.49 -2504.38c7.23,62.48 12.77,125.46 16.56,188.91 3.74,-35.06 4.04,-69.92 -2.38,-104.21 -5.19,-27.7 -9.9,-56 -14.18,-84.7zm-6488.98 -2069.63c-8.37,8.53 -16.76,16.93 -25.17,25.16 -23.49,23.02 -41.33,50.77 -56.63,80.46 22.79,-20.97 46.72,-42.33 71.89,-64.15 1.97,-13.62 5.27,-27.49 9.91,-41.47zm-38.03 206.42c-111.64,117.64 -214.78,243.68 -308.31,377.21 167.3,-140.15 364.93,-269.7 522.49,-354.13 -59.69,5.95 -113.8,-9.97 -148.81,-49.37 -3.99,-4.48 -7.66,-9.17 -11.04,-14.02 -18.21,13.06 -36.37,26.51 -54.34,40.31zm-653.16 734.14c-1.5,-1.13 -3.02,-2.23 -4.56,-3.3 7.8,-19.65 17.16,-38.52 28.73,-56.24 18.8,-28.82 37.29,-58.73 55.41,-89.38 -27.72,48.9 -54.26,98.56 -79.58,148.93zm1646.39 4553.07c38.44,18.58 77.3,36.43 116.54,53.51 -57.38,-42.56 -95.74,-73.42 -90.68,-72.82 -7.76,7.71 -16.44,14.13 -25.86,19.31zm-817.63 -438.86c-88.43,-78.84 -172.87,-161.45 -253.01,-247.17 -17.5,-7.45 -34.74,-14.78 -51.88,-22.39 19.53,34.36 27.91,72.81 25.77,108.23 104.08,54.8 187.18,111.87 279.12,161.33zm-803.78 -1267.98c2.02,4.7 4.04,9.39 6.07,14.08 -1.16,-4.91 -2.35,-9.83 -3.57,-14.76l-2.5 0.68zm110.17 232.37c43.21,82.87 89.73,163.79 139.41,242.53 -63.33,-186.58 -110.15,-397.23 -137.07,-578.98 -13,30.22 -32.89,56.04 -56.23,74.84 14.2,54.69 23.98,107.15 33.81,159.84 6.28,33.63 12.56,67.35 20.07,101.77zm-314.69 -454.73c-0.15,-2.06 -0.28,-4.13 -0.38,-6.18 -21.31,-62.67 -40.79,-125.98 -58.41,-189.85 9.31,35.88 17.76,71.49 25.16,106.51 6.61,31.32 18.64,60.93 33.63,89.52zm-66.94 -1048.54c0.3,19.72 0.78,39.4 1.43,59.05 2.99,-19 5.74,-38.22 8.07,-57.86 -3.2,-0.27 -6.37,-0.67 -9.49,-1.19zm19.18 310.28c7.13,65.65 16.17,130.8 27.07,195.39 15.8,-189.84 52.69,-390.6 95.74,-558.55 -21.66,21.96 -47.72,37.89 -74.48,46.67 -5.81,53.95 -14.83,104.41 -23.88,155.08 -9.33,52.23 -18.71,104.7 -24.44,161.41zm718.47 1888.04c-20.14,-22.97 -39.97,-46.12 -59.5,-69.46 -19.54,-23.35 -38.73,-46.93 -57.59,-70.73 16.47,22.32 32.41,44.66 47.65,66.91 19.09,27.88 43.02,51.69 69.44,73.28zm-845.14 -2455.66c3.79,-63.45 9.33,-126.44 16.56,-188.91 -4.28,28.7 -9,57 -14.18,84.7 -6.41,34.29 -6.12,69.15 -2.38,104.21zm3775.39 3152.37c25.62,0 53.45,-20.33 53.45,-46.83l-6.98 -5803.16c0,-25.79 -20.88,-46.84 -46.5,-46.84 -25.57,0 -46.5,21.08 -46.5,46.84l-6.91 5803.16c0,26.46 27.87,46.83 53.44,46.83zm-332.19 -27.25c25.62,0 53.61,-20.33 53.82,-46.83l38 -5759.55c0.2,-25.8 -20.51,-46.85 -46.13,-46.85 -25.58,0 -46.67,21.08 -46.87,46.85l-51.89 5759.55c-0.2,26.46 27.5,46.83 53.08,46.83zm664.3 0c-25.62,0 -53.61,-20.33 -53.82,-46.83l-38 -5759.55c-0.2,-25.8 20.51,-46.85 46.13,-46.85 25.58,0 46.67,21.08 46.87,46.85l51.89 5759.55c0.2,26.46 -27.5,46.83 -53.08,46.83zm2322.14 -2928.68c0,1260.97 -894.09,2324.86 -2079.06,2589.73l15.05 873.55c0.17,9.79 -3.51,18.26 -10.95,25.24 -7.44,6.98 -16.57,10.51 -27.19,10.51l-1104.27 0c-10.61,0 -19.74,-3.53 -27.19,-10.51 -7.44,-6.98 -11.12,-15.45 -10.95,-25.24l15.05 -873.51c-1185.1,-264.78 -2079.06,-1328.62 -2079.06,-2589.77 0,-1291.8 935.39,-2377.18 2168.57,-2606.28l10.09 -585.74c0.33,-19.19 17.34,-34.63 38.14,-34.63l874.94 0c20.8,0 37.81,15.45 38.14,34.63l10.06 584.07c1227.87,230.64 2168.62,1317.36 2168.62,2607.95zm-3146.01 -2257.44c-245.94,181.13 -425.8,478.02 -543.31,747.1 -7.46,17.09 0.13,37.08 17.07,44.9 163.77,75.59 334.59,132.13 509.69,169.28l16.56 -961.28zm999.99 961.25c175.06,-37.15 345.84,-93.67 509.57,-169.25 16.94,-7.82 24.54,-27.8 17.07,-44.9 -117.5,-269.07 -297.32,-565.88 -543.2,-747.01l16.56 961.16zm20.41 1184.62l759.43 0c9.65,0 17.96,-3.52 24.67,-10.45 6.7,-6.94 9.96,-15.36 9.64,-25 -12.98,-395.18 -78,-764.69 -182.99,-1087.26 -3.13,-9.61 -9.53,-16.69 -18.78,-20.78 -9.26,-4.09 -18.8,-4.04 -28.01,0.13 -186.28,84.29 -381.01,146.29 -580.46,185.38l16.51 957.99zm20.48 1188.65c186.53,39.33 368.71,98.79 543.47,177.86 9.22,4.17 18.76,4.22 28.01,0.13 9.25,-4.09 15.65,-11.16 18.78,-20.78 104.99,-322.57 170.02,-692.09 182.99,-1087.27 0.32,-9.65 -2.93,-18.06 -9.64,-25 -6.71,-6.93 -15.02,-10.46 -24.67,-10.46l-755.58 0 16.64 965.52zm19.27 1118.28c206.95,-182.38 361.56,-444.75 466.48,-685.01 7.46,-17.09 -0.13,-37.08 -17.07,-44.91 -149.72,-69.11 -305.35,-122.28 -464.73,-159.29l15.32 889.2zm-1121.54 -889.24c-159.41,37 -315.05,90.19 -464.84,159.32 -16.94,7.82 -24.54,27.81 -17.07,44.91 104.93,240.29 259.58,502.72 466.59,685.11l15.32 -889.34zm20.58 -1194.56l-755.69 0c-9.65,0 -17.96,3.52 -24.67,10.46 -6.7,6.94 -9.96,15.35 -9.64,25 12.98,395.19 78,764.7 182.99,1087.27 3.13,9.62 9.53,16.7 18.78,20.78 9.26,4.08 18.8,4.04 28.01,-0.13 174.8,-79.08 357.02,-138.55 543.59,-177.88l16.63 -965.49zm20.35 -1181.11c-199.48,-39.09 -394.23,-101.1 -580.57,-185.4 -9.22,-4.17 -18.76,-4.22 -28.01,-0.13 -9.25,4.09 -15.65,11.17 -18.78,20.78 -104.99,322.57 -170.01,692.09 -182.99,1087.26 -0.32,9.65 2.93,18.07 9.64,25 6.71,6.93 15.02,10.45 24.67,10.45l759.54 0 16.5 -957.97zm2901.12 1181.11l-808.91 0c-18.54,0 -33.73,14.74 -34.31,33.26 -13.62,437.94 -88.63,847.95 -210.14,1203.74 -5.31,15.55 0.85,32.26 14.98,40.63 133.51,79.09 259.5,169.54 376.65,270.03 13.96,11.98 34.89,10.83 47.44,-2.62 373.66,-400.13 613.57,-926.75 648.56,-1508.65 0.59,-9.8 -2.55,-18.44 -9.28,-25.59 -6.72,-7.15 -15.18,-10.8 -24.99,-10.8zm-829.89 1696.82c-88.44,-74 -182.25,-141.82 -280.73,-202.82 -8.72,-5.41 -18.35,-6.65 -28.15,-3.63 -9.81,3.01 -17.08,9.44 -21.26,18.81 -91.4,204.62 -208.19,404.44 -354.79,575.27 -10.45,12.18 -11.19,29.39 -1.81,42.41 9.37,13.02 25.92,17.78 40.78,11.74 236.12,-95.91 453.74,-227.91 646,-389.15 8.06,-6.76 12.28,-15.81 12.27,-26.33 -0.01,-10.51 -4.24,-19.56 -12.3,-26.31zm-2433.24 387.68c-146.62,-170.83 -263.44,-370.68 -354.83,-575.31 -4.19,-9.37 -11.45,-15.8 -21.26,-18.81 -9.81,-3.02 -19.43,-1.78 -28.15,3.63 -98.5,61 -192.31,128.85 -280.76,202.85 -8.06,6.75 -12.3,15.8 -12.3,26.31 -0.01,10.52 4.21,19.57 12.27,26.32 192.28,161.25 409.92,293.26 646.08,389.17 14.86,6.04 31.4,1.27 40.77,-11.74 9.38,-13.02 8.65,-30.24 -1.81,-42.42zm-853.17 -536.8c117.15,-100.5 243.17,-190.98 376.69,-270.07 14.13,-8.37 20.3,-25.08 14.99,-40.63 -121.51,-355.79 -196.53,-765.79 -210.15,-1203.74 -0.57,-18.52 -15.78,-33.26 -34.31,-33.26l-808.98 0c-9.82,0 -18.27,3.65 -25,10.8 -6.73,7.15 -9.87,15.79 -9.28,25.59 34.99,581.91 274.92,1108.56 648.59,1508.69 12.56,13.45 33.47,14.6 47.44,2.62zm-661.77 -1770.83l808.98 0c18.54,0 33.74,-14.73 34.31,-33.26 13.62,-437.94 88.63,-847.95 210.14,-1203.73 5.31,-15.55 -0.85,-32.26 -14.98,-40.63 -133.53,-79.1 -259.54,-169.57 -376.7,-270.08 -13.96,-11.98 -34.89,-10.83 -47.44,2.62 -373.67,400.15 -613.6,926.78 -648.58,1508.69 -0.59,9.8 2.56,18.44 9.28,25.59 6.73,7.15 15.18,10.8 25,10.8zm829.91 -1696.85c88.46,74.01 182.28,141.86 280.78,202.87 8.72,5.41 18.35,6.65 28.16,3.63 9.81,-3.01 17.07,-9.44 21.26,-18.81 91.4,-204.65 208.24,-404.51 354.88,-575.36 10.45,-12.17 11.19,-29.39 1.81,-42.41 -9.37,-13.02 -25.92,-17.79 -40.78,-11.76 -236.18,95.91 -453.85,227.93 -646.15,389.21 -8.06,6.76 -12.28,15.81 -12.27,26.32 0.01,10.52 4.24,19.56 12.3,26.31zm2433.3 -387.64c146.62,170.84 263.44,370.7 354.84,575.33 4.19,9.37 11.45,15.8 21.26,18.81 9.81,3.02 19.43,1.78 28.16,-3.63 98.48,-61 192.3,-128.83 280.74,-202.83 8.06,-6.75 12.29,-15.79 12.3,-26.31 0,-10.52 -4.21,-19.57 -12.27,-26.33 -192.28,-161.26 -409.91,-293.28 -646.07,-389.2 -14.86,-6.04 -31.4,-1.27 -40.78,11.75 -9.38,13.02 -8.64,30.24 1.81,42.41zm853.16 536.83c-117.15,100.5 -243.15,190.96 -376.66,270.05 -14.14,8.37 -20.3,25.08 -14.99,40.63 121.5,355.79 196.52,765.78 210.14,1203.73 0.58,18.52 15.78,33.26 34.31,33.26l808.91 0c9.81,0 18.27,-3.65 25,-10.8 6.73,-7.15 9.87,-15.8 9.28,-25.59 -34.98,-581.89 -274.9,-1108.52 -648.54,-1508.65 -12.56,-13.45 -33.48,-14.6 -47.44,-2.62zm-2368.09 -1828.6c427.24,0 854.48,0 1281.73,0 21.01,0 38.15,-17.14 38.15,-38.15l0 -151.87c0,-21.01 -17.14,-38.15 -38.15,-38.15l-1281.73 0c-21.01,0 -38.15,17.14 -38.15,38.15l0 151.87c0,21.01 17.13,38.15 38.15,38.15zm76.3 97.03l0 55.8c0,27.23 22.28,49.46 49.48,49.46 343.39,0 686.78,0 1030.17,0 27.22,0 49.49,-22.23 49.49,-49.46l0 -55.8c0,-21.01 -17.13,-38.15 -38.15,-38.15l-1052.85 0c-21.01,0 -38.15,17.14 -38.15,38.15z"/>
 </g>
</svg>
