<?xml version="1.0" encoding="UTF-8" standalone="no"?>
<!DOCTYPE svg PUBLIC "-//W3C//DTD SVG 1.1//EN" "http://www.w3.org/Graphics/SVG/1.1/DTD/svg11.dtd">
<svg width="100%" height="100%" viewBox="0 0 648 648" version="1.1" xmlns="http://www.w3.org/2000/svg" xmlns:xlink="http://www.w3.org/1999/xlink" xml:space="preserve" xmlns:serif="http://www.serif.com/" style="fill-rule:evenodd;clip-rule:evenodd;stroke-linejoin:round;stroke-miterlimit:2;">
    <g id="Layer_x0020_1" transform="matrix(0.072,0,0,0.072,0,0)">
        <path id="Phi_x0020_Logo" d="M3906.07,8058.07C3880.83,8060.23 3860.85,8081.57 3860.85,8107.36L3860.85,8177.86C3860.85,8198.86 3877.98,8216.01 3899,8216.01L5101.02,8216.01C5122.03,8216.01 5139.17,8198.88 5139.17,8177.86L5139.17,8107.36C5139.17,8080.68 5117.79,8058.79 5091.35,8057.92L5091.35,8058.07L3906.07,8058.07ZM4500.03,7455.92C4525.65,7455.92 4553.48,7435.59 4553.48,7409.09L4546.5,1605.93C4546.5,1580.14 4525.62,1559.09 4500,1559.09C4474.43,1559.09 4453.5,1580.17 4453.5,1605.93L4446.59,7409.09C4446.59,7435.55 4474.46,7455.92 4500.03,7455.92ZM4167.84,7428.67C4193.46,7428.67 4221.45,7408.34 4221.66,7381.84L4259.66,1622.29C4259.86,1596.49 4239.15,1575.44 4213.53,1575.44C4187.95,1575.44 4166.86,1596.52 4166.66,1622.29L4114.77,7381.84C4114.57,7408.3 4142.27,7428.67 4167.85,7428.67L4167.84,7428.67ZM4832.14,7428.67C4806.52,7428.67 4778.53,7408.34 4778.32,7381.84L4740.32,1622.29C4740.12,1596.49 4760.83,1575.44 4786.45,1575.44C4812.03,1575.44 4833.12,1596.52 4833.32,1622.29L4885.21,7381.84C4885.41,7408.3 4857.71,7428.67 4832.13,7428.67L4832.14,7428.67ZM7154.28,4499.99C7154.28,5760.96 6260.19,6824.85 5075.22,7089.72L5090.27,7963.27C5090.63,7984.24 5072.25,7999.02 5052.13,7999.02L3947.86,7999.02C3927.74,7999.02 3909.36,7984.25 3909.72,7963.27L3924.77,7089.76C2739.67,6824.98 1845.71,5761.14 1845.71,4499.99C1845.71,3208.19 2781.1,2122.81 4014.28,1893.71L4024.37,1307.97C4024.7,1288.78 4041.71,1273.34 4062.51,1273.34L4937.45,1273.34C4958.25,1273.34 4975.26,1288.8 4975.59,1307.97L4985.65,1892.04C6213.52,2122.68 7154.27,3209.4 7154.27,4499.99L7154.28,4499.99ZM4008.27,2242.55C3762.33,2423.68 3582.46,2720.57 3464.96,2989.65C3457.5,3006.73 3465.1,3026.74 3482.03,3034.55C3645.79,3110.13 3816.62,3166.68 3991.72,3203.83L4008.28,2242.55L4008.27,2242.55ZM5008.26,3203.8C5183.32,3166.65 5354.1,3110.11 5517.83,3034.55C5534.76,3026.74 5542.36,3006.74 5534.9,2989.65C5417.42,2720.59 5237.58,2423.77 4991.7,2242.64L5008.26,3203.8ZM5028.67,4388.42L5788.1,4388.42C5807.64,4388.42 5823.05,4372.48 5822.41,4352.96C5809.43,3957.79 5744.4,3588.26 5639.42,3265.7C5633.06,3246.14 5611.36,3236.58 5592.63,3245.05C5406.35,3329.33 5211.62,3391.34 5012.17,3430.43L5028.68,4388.42L5028.67,4388.42ZM5049.15,5577.07C5235.68,5616.4 5417.87,5675.86 5592.62,5754.93C5611.36,5763.41 5633.05,5753.84 5639.41,5734.28C5744.39,5411.71 5809.43,5042.19 5822.4,4647.01C5823.04,4627.51 5807.59,4611.55 5788.09,4611.55L5032.51,4611.55L5049.15,5577.07ZM5068.42,6695.35C5275.37,6512.97 5429.99,6250.6 5534.9,6010.34C5542.36,5993.26 5534.76,5973.25 5517.83,5965.43C5368.11,5896.33 5212.48,5843.15 5053.1,5806.14L5068.42,6695.34L5068.42,6695.35ZM3946.88,5806.11C3787.47,5843.11 3631.82,5896.31 3482.04,5965.43C3465.11,5973.24 3457.51,5993.25 3464.97,6010.34C3569.9,6250.62 3724.55,6513.06 3931.56,6695.45L3946.88,5806.11ZM3967.46,4611.55L3211.77,4611.55C3192.26,4611.55 3176.82,4627.5 3177.46,4647.01C3190.43,5042.19 3255.47,5411.72 3360.45,5734.28C3366.81,5753.84 3388.51,5763.4 3407.24,5754.93C3582.03,5675.85 3764.26,5616.38 3950.83,5577.05L3967.46,4611.56L3967.46,4611.55ZM3987.81,3430.44C3788.33,3391.35 3593.57,3329.33 3407.24,3245.04C3388.5,3236.56 3366.81,3246.13 3360.45,3265.69C3255.47,3588.25 3190.43,3957.78 3177.46,4352.95C3176.82,4372.46 3192.24,4388.41 3211.77,4388.41L3971.31,4388.41L3987.81,3430.44ZM6888.93,4611.55C6888.93,4611.55 6080.02,4611.55 6080.02,4611.55C6061.5,4611.55 6046.28,4626.3 6045.71,4644.81C6032.1,5082.75 5957.07,5492.77 5835.57,5848.55C5830.26,5864.09 5836.43,5880.81 5850.55,5889.18C5984.05,5968.26 6110.06,6058.73 6227.2,6159.21C6241.16,6171.18 6262.09,6170.03 6274.64,6156.59C6648.29,5756.47 6888.22,5229.83 6923.2,4647.94C6924.39,4628.1 6908.78,4611.55 6888.93,4611.55ZM6059.04,6308.37C5970.61,6234.39 5876.78,6166.54 5778.31,6105.55C5760.55,6094.55 5737.41,6101.65 5728.89,6120.73C5637.5,6325.34 5520.7,6525.18 5374.1,6696C5350.75,6723.2 5379.86,6763.65 5413.07,6750.16C5649.18,6654.25 5866.82,6522.24 6059.07,6361.01C6075.44,6347.28 6075.41,6322.07 6059.04,6308.38L6059.04,6308.37ZM3625.8,6696.05C3479.19,6525.24 3362.36,6325.36 3270.97,6120.74C3262.45,6101.66 3239.32,6094.55 3221.55,6105.55C3123.05,6166.54 3029.24,6234.4 2940.79,6308.4C2924.41,6322.11 2924.39,6347.31 2940.76,6361.03C3133.03,6522.27 3350.69,6654.3 3586.84,6750.2C3620.05,6763.69 3649.14,6723.24 3625.8,6696.04L3625.8,6696.05ZM2772.63,6159.25C2889.77,6058.77 3015.8,5968.27 3149.32,5889.18C3163.45,5880.81 3169.61,5864.09 3164.31,5848.55C3042.81,5492.77 2967.77,5082.76 2954.16,4644.81C2953.59,4626.3 2938.37,4611.55 2919.85,4611.55L2110.87,4611.55C2091,4611.55 2075.4,4628.1 2076.59,4647.94C2111.57,5229.84 2351.52,5756.5 2725.18,6156.63C2737.74,6170.07 2758.67,6171.22 2772.62,6159.25L2772.63,6159.25ZM2110.86,4388.42L2919.84,4388.42C2938.38,4388.42 2953.58,4373.67 2954.15,4355.16C2967.75,3917.22 3042.79,3507.21 3164.29,3151.43C3169.6,3135.89 3163.43,3119.17 3149.31,3110.8C3015.79,3031.71 2889.76,2941.22 2772.61,2840.72C2758.65,2828.75 2737.72,2829.9 2725.17,2843.34C2351.51,3243.48 2111.56,3770.12 2076.59,4352.03C2075.4,4371.88 2090.98,4388.42 2110.87,4388.42L2110.86,4388.42ZM2940.77,2691.57C3029.22,2765.57 3123.06,2833.44 3221.55,2894.44C3239.32,2905.44 3262.45,2898.34 3270.97,2879.25C3362.36,2674.61 3479.21,2474.73 3625.85,2303.89C3649.2,2276.69 3620.09,2236.24 3586.88,2249.73C3350.71,2345.63 3133.02,2477.67 2940.73,2638.94C2924.36,2652.67 2924.39,2677.87 2940.76,2691.57L2940.77,2691.57ZM5374.07,2303.93C5520.67,2474.75 5637.53,2674.63 5728.91,2879.26C5737.43,2898.34 5760.56,2905.44 5778.33,2894.44C5876.81,2833.45 5970.63,2765.6 6059.07,2691.61C6075.45,2677.9 6075.47,2652.7 6059.11,2638.98C5866.84,2477.72 5649.19,2345.68 5413.04,2249.78C5379.83,2236.29 5350.73,2276.75 5374.08,2303.95L5374.07,2303.93ZM6227.23,2840.76C6110.1,2941.24 5984.08,3031.73 5850.57,3110.81C5836.44,3119.18 5830.28,3135.9 5835.58,3151.44C5957.08,3507.22 6032.11,3917.23 6045.72,4355.17C6046.29,4373.68 6061.5,4388.43 6080.03,4388.43L6888.94,4388.43C6908.83,4388.43 6924.41,4371.89 6923.22,4352.04C6888.26,3770.15 6648.31,3243.51 6274.68,2843.39C6262.13,2829.95 6241.18,2828.8 6227.24,2840.77L6227.23,2840.76ZM3859.14,1012.16L5140.87,1012.16C5161.88,1012.16 5179.02,995.02 5179.02,974.01L5179.02,822.14C5179.02,801.13 5161.87,783.99 5140.87,783.99L3859.14,783.99C3838.14,783.99 3820.99,801.14 3820.99,822.14L3820.99,974.01C3820.99,995.01 3838.12,1012.16 3859.14,1012.16ZM3935.44,1109.19L3935.44,1164.99C3935.44,1192.2 3957.72,1214.45 3984.92,1214.45L5015.09,1214.45C5042.31,1214.45 5064.58,1192.22 5064.58,1164.99L5064.58,1109.19C5064.58,1088.18 5047.43,1071.04 5026.43,1071.04L3973.58,1071.04C3952.58,1071.04 3935.43,1088.21 3935.43,1109.19L3935.44,1109.19Z" style="fill:rgb(102,2,60);"/>
    </g>
</svg>
