<?xml version="1.0" encoding="UTF-8"?>
<svg fill="#E9776B" width="100pt" height="100pt" version="1.1" viewBox="0 0 100 100" xmlns="http://www.w3.org/2000/svg">
 <g>
  <path d="m74.938 24.676c-0.55859-9.6836-7.4336-14.465-13.992-14.465-4.7305 0-8.8047 3.3828-10.711 8.2617-1.9062-4.8789-5.9805-8.2617-10.711-8.2617-6.5547 0-13.434 4.7812-13.992 14.465-0.96094 16.699 24.703 33.18 24.703 33.18s25.664-16.48 24.703-33.18zm-22.809 25.926-1.6562-2.3398c6.8398-4.8438 17.539-15.238 17.121-22.516-0.30859-5.3867-3.7969-7.2969-6.6875-7.2969v-2.8672c4.3203 0 9.1523 3.1289 9.5469 10 0.52734 9.1523-11.754 20.367-18.324 25.02z"/>
  <path d="m89.656 21.656c-1.418 0-2.7812 0.56641-3.7852 1.5703-1.0039 1.0039-1.5703 2.3672-1.5703 3.7852v24.145l-0.042969-0.042969-11.598 13.121-2.7383-2.418 11.277-12.754c-3.5859-1.3555-8.6641-0.52344-10.754 2.3555l-15.105 16.824c-2.6055 2.9062-4.0469 6.6719-4.0391 10.578l0.019531 10.969h22.48l4.1797-8.2539 13.902-16.625c2.0234-2.418 3.1289-5.4688 3.1289-8.6211v-29.277c0-1.418-0.5625-2.7812-1.5664-3.7852-1.0039-1.0039-2.3672-1.5703-3.7891-1.5703z"/>
  <path d="m29.551 51.418c-2.0859-2.8789-7.168-3.7109-10.754-2.3555l11.277 12.754-2.7383 2.418-11.602-13.117-0.042969 0.042968 0.007813-24.148c0.003906-1.4219-0.55859-2.7891-1.5664-3.793-1.0039-1.0078-2.3672-1.5742-3.7891-1.5742-1.4258 0-2.7891 0.56641-3.793 1.5742-1.0039 1.0039-1.5664 2.3711-1.5625 3.793v29.277c0 3.1523 1.1055 6.2031 3.1289 8.6211l13.902 16.625 4.1797 8.2539h22.48l0.019531-10.969c0.007812-3.9062-1.4336-7.6719-4.0391-10.578z"/>
 </g>
</svg>
