<?xml version="1.0" encoding="UTF-8"?>
<svg width="100px" height="100px" viewBox="0 0 100 100" version="1.1" xmlns="http://www.w3.org/2000/svg" xmlns:xlink="http://www.w3.org/1999/xlink">
    <!-- Generator: Sketch 55.2 (78181) - https://sketchapp.com -->
    <title>Shape</title>
    <desc>Created with Sketch.</desc>
    <g id="Page-1" stroke="none" stroke-width="1" fill="none" fill-rule="evenodd">
        <g id="Artboard-Copy-5" fill="#FFFFFF" fill-rule="nonzero">
            <g id="np_language_2057867_FFFFFF">
                <path d="M50.012,-8.8817842e-15 C63.801,-8.8817842e-15 76.305,5.5938 85.367,14.656 C94.4022,23.6912 100,36.195 100,50.011 C100,63.8 94.4062,76.304 85.367,85.366 C76.3045,94.4012 63.801,99.999 50.012,99.999 C36.196,99.999 23.692,94.4052 14.657,85.366 C5.5945,76.3035 0.001,63.8 0.001,50.011 C0.001,36.195 5.5948,23.691 14.657,14.656 C23.6922,5.5935 36.196,-8.8817842e-15 50.012,-8.8817842e-15 Z M79.848,20.18 C76.8753,17.1839 73.4613,14.6605 69.723,12.68 C70.31675,13.59797 70.8871,14.5355 71.43,15.5277 C75.8636,23.5511 78.7581,34.2467 79.2777,46.1057 L92.0277,46.1057 C91.10973,36.0037 86.6293,26.9417 79.8477,20.1837 L79.848,20.18 Z M79.848,79.848 C86.6332,73.0628 91.114,64.004 92.028,53.903 L79.278,53.903 C78.75847,65.762 75.86,76.458 71.4303,84.481 C70.88733,85.47319 70.317,86.438 69.7233,87.3287 C73.4616,85.3482 76.8795,82.8209 79.8483,79.8521 L79.848,79.848 Z M20.18,79.848 C23.1527,82.8207 26.5433,85.3441 30.305,87.3246 C29.71125,86.43398 29.1409,85.4691 28.598,84.4769 C24.1644,76.4535 21.2699,65.7579 20.723,53.8989 L7.996,53.8989 C8.91397,64.0009 13.3944,73.0629 20.176,79.8439 L20.18,79.848 Z M20.18,20.18 C13.3948,26.9378 8.914,36 8,46.102 L20.727,46.102 C21.26997,34.243 24.1684,23.547 28.602,15.524 C29.14497,14.53181 29.7153,13.5943 30.309,12.6763 C26.5473,14.6568 23.1528,17.1841 20.184,20.1763 L20.18,20.18 Z M53.903,8.543 L53.903,46.102 L71.481,46.102 C70.96147,35.606 68.4341,26.219 64.5982,19.29 C61.6255,13.8916 57.938,10.0791 53.9032,8.544 L53.903,8.543 Z M53.903,53.902 L53.903,91.461 C57.9382,89.9258 61.6296,86.1133 64.598,80.742 C68.4339,73.785 70.9613,64.402 71.4808,53.902 L53.903,53.902 Z M46.1022,91.461 L46.1022,53.902 L28.5472,53.902 C29.04329,64.398 31.5941,73.785 35.43,80.742 C38.4027,86.1131 42.0902,89.9256 46.102,91.461 L46.1022,91.461 Z M46.1022,46.102 L46.1022,8.543 C42.0905,10.0782 38.403,13.8907 35.4302,19.289 C31.5943,26.2226 29.0435,35.605 28.5474,46.101 L46.1022,46.102 Z" id="Shape"></path>
            </g>
        </g>
    </g>
</svg>