<?xml version="1.0" encoding="UTF-8"?>
<svg width="2694px" height="2694px" viewBox="0 0 2694 2694" version="1.1" xmlns="http://www.w3.org/2000/svg" xmlns:xlink="http://www.w3.org/1999/xlink">
    <!-- Generator: Sketch 48.2 (47327) - http://www.bohemiancoding.com/sketch -->
    <title>TSF Logo</title>
    <desc>Created with Sketch.</desc>
    <defs></defs>
    <g id="Page-1" stroke="none" stroke-width="1" fill="none" fill-rule="evenodd">
        <g id="TSF-Logo">
            <g id="lighthouse-(1)">
                <circle id="Oval" fill="#096C80" fill-rule="nonzero" cx="1347" cy="1347" r="1304"></circle>
                <g id="Group" transform="translate(222.000000, 1346.000000)" fill="#064855" fill-rule="nonzero">
                    <path d="M1812.1578,132.217363 L1796.63686,132.217363 C1799.22632,132.296283 1801.78946,132.490952 1804.3947,132.490952 C1806.99994,132.490952 1809.56834,132.301544 1812.1578,132.217363 Z" id="Shape"></path>
                    <path d="M453.363136,132.217363 L437.842205,132.217363 C440.431658,132.296283 442.994796,132.490952 445.605302,132.490952 C448.215808,132.490952 450.778946,132.301544 453.363136,132.217363 Z" id="Shape"></path>
                    <path d="M2030.99293,0 C1981.00911,77.9151183 1901.90446,129.386764 1812.1578,132.217363 C1809.57887,132.296283 1807.01047,132.490952 1804.39996,132.490952 C1801.78946,132.490952 1799.22105,132.301544 1796.63686,132.217363 C1706.89546,129.386764 1627.86976,77.909857 1578.03857,0 C1528.05475,77.9151183 1448.94484,129.386764 1359.20344,132.217363 C1356.69293,132.296283 1354.12979,132.490952 1351.51928,132.490952 C1348.8351,132.490952 1346.26669,132.301544 1343.67724,132.217363 C1253.93584,129.386764 1174.91014,77.909857 1125.07895,0 C1075.09513,77.9151183 996.064164,129.386764 906.249076,132.217363 C903.733306,132.296283 901.170168,132.490952 898.559662,132.490952 C895.875472,132.490952 893.307071,132.301544 890.717618,132.217363 C801.049897,129.386764 721.939988,77.909857 672.119324,0 C622.135503,77.9151183 543.104541,129.386764 453.357873,132.217363 C450.773683,132.296283 448.210545,132.490952 445.600039,132.490952 C442.98427,132.490952 440.415869,132.301544 437.826415,132.217363 C348.090274,129.386764 268.980365,77.909857 219.159701,0 C169.249564,77.9151183 90.1449182,129.381503 0.408776374,132.217363 C46.5768371,527.064812 296.785411,860.496692 642.509029,1023.97165 C642.509029,1023.91904 1613.07514,1021.2568 1613.07514,1021.2568 C1955.88825,856.845325 2203.67053,524.92871 2249.5807,132.222624 C2159.84456,129.381503 2080.74517,77.9151183 2030.99293,0 Z" id="Shape"></path>
                    <path d="M1359.19817,132.217363 L1343.74566,132.217363 C1346.32459,132.296283 1348.8772,132.485691 1351.47192,132.485691 C1354.06663,132.485691 1356.62451,132.301544 1359.19817,132.217363 Z" id="Shape"></path>
                    <path d="M906.254339,132.217363 L890.801828,132.217363 C893.375492,132.296283 895.933367,132.485691 898.52282,132.485691 C901.112274,132.485691 903.670148,132.301544 906.254339,132.217363 Z" id="Shape"></path>
                </g>
                <polygon id="Shape" fill="#FFFFFF" fill-rule="nonzero" points="1519 366.926693 1347 281 1175 366.926693 1175 567.429323 1347 682 1519 567.429323"></polygon>
                <rect id="Rectangle-path" fill="#FFD170" fill-rule="nonzero" x="1175" y="567" width="344" height="287"></rect>
                <g id="Group" transform="translate(1058.000000, 739.000000)" fill="#FFFFFF" fill-rule="nonzero">
                    <polygon id="Shape" points="518.479576 0.164750855 59.5204238 0.164750855 41.5250203 355.847596 289 470.43606 536.47498 355.847596"></polygon>
                    <polyline id="Shape" points="0.199316084 1172.92414 577.800684 1172.92414 554.465117 711.540959 289 596.957754 23.5348832 711.540959"></polyline>
                </g>
                <polygon id="Shape" fill="#FF7066" fill-rule="nonzero" points="1595.0075 1095 1099.9925 1095 1082 1451 1613 1451"></polygon>
                <path d="M1346.11017,2479 C1520.82008,2479 1686.26886,2439.35701 1834,2368.61518 L1833.81593,2368.33108 L1803.08748,1807 L894.076337,1807 L864,2370.95115 L864,2371.31943 C1010.26387,2440.34085 1173.66163,2479 1346.11017,2479 Z" id="Shape" fill="#FFD170" fill-rule="nonzero"></path>
                <g id="Group" transform="translate(774.000000, 348.000000)" stroke="#FFE1A0" stroke-linecap="round" stroke-linejoin="round" stroke-width="50">
                    <path d="M172.286766,219.348907 L0.336733945,219.348907" id="Shape"></path>
                    <path d="M172.286766,385.432232 L43.9543028,438.525692" id="Shape"></path>
                    <path d="M172.286766,53.2603249 L43.9543028,0.182636692" id="Shape"></path>
                </g>
                <g id="Group" fill="#03242B" fill-rule="nonzero">
                    <path d="M2299.47107,394.528934 C2045.05644,140.109047 1706.79633,0 1347,0 C987.203672,0 648.938297,140.109047 394.528934,394.528934 C140.109047,648.943559 0,987.203672 0,1347 C0,1706.79633 140.109047,2045.05644 394.528934,2299.47107 C648.938297,2553.89095 987.203672,2694 1347,2694 C1706.79633,2694 2045.05644,2553.89095 2299.47107,2299.47107 C2553.88569,2045.05118 2694,1706.79633 2694,1347 C2694,987.203672 2553.89095,648.943559 2299.47107,394.528934 Z M1347,2608.02352 C651.669129,2608.02352 85.9764844,2042.33613 85.9764844,1347 C85.9764844,651.663867 651.669129,85.9764844 1347,85.9764844 C2042.33087,85.9764844 2608.02352,651.669129 2608.02352,1347 C2608.02352,2042.33087 2042.33087,2608.02352 1347,2608.02352 Z" id="Shape"></path>
                    <path d="M2503.84675,1451.16625 C2495.991,1442.04769 2484.67304,1436.64916 2472.65002,1436.26506 C2400.05934,1433.97095 2333.11976,1392.99795 2288.99498,1323.87475 C2281.09714,1311.50445 2267.43246,1304.01176 2252.75753,1304.01176 C2238.08259,1304.01176 2224.41791,1311.50445 2216.52533,1323.86948 C2170.81678,1395.45517 2101.46207,1436.51236 2026.22475,1436.51236 C1951.19264,1436.51236 1881.90633,1395.44991 1836.14516,1323.8537 C1828.24732,1311.49918 1814.59842,1304.02228 1799.94454,1304.01702 C1785.2696,1304.01702 1771.63123,1311.4834 1763.72286,1323.82213 C1758.70318,1331.66735 1753.03631,1339.55467 1746.89589,1347.27361 C1732.09993,1365.83695 1735.16225,1392.88745 1753.73612,1407.6834 C1766.28532,1417.67541 1782.70714,1419.52227 1796.58756,1413.94485 C1857.03418,1482.71025 1939.79576,1522.49937 2026.23001,1522.49937 C2111.21203,1522.49937 2192.5582,1484.20458 2252.66808,1417.81221 C2299.32374,1469.77168 2358.26025,1504.14123 2422.73735,1516.84828 C2388.0942,1735.6779 2285.12762,1942.42136 2130.01741,2103.04584 C2113.52719,2120.12012 2114.00074,2147.34425 2131.08554,2163.83448 C2139.43063,2171.89017 2150.19084,2175.89434 2160.94054,2175.89434 C2172.19535,2175.89434 2183.43964,2171.49554 2191.86892,2162.76635 C2370.01493,1978.28523 2484.41522,1737.30904 2513.99134,1484.22036 C2515.3857,1472.26574 2511.70775,1460.27954 2503.84675,1451.16625 Z" id="Shape"></path>
                    <path d="M2006.41438,2213.06838 C1964.08385,2245.38586 1919.93277,2274.30953 1874.24527,2299.78677 L1847.13163,1804.63273 C1845.8846,1781.83896 1827.03186,1763.99121 1804.20653,1763.99121 L1671.06926,1763.99121 L1619.2045,737.245723 C1618.05218,714.373031 1599.17313,696.425309 1576.27413,696.425309 L1561.94647,696.425309 L1561.94647,610.448824 L1576.27413,610.448824 C1600.02027,610.448824 1619.26238,591.206719 1619.26238,567.460582 C1619.26238,543.714445 1600.02027,524.47234 1576.27413,524.47234 L1561.94647,524.47234 L1561.94647,436.028109 C1566.63466,437.696074 1571.46492,438.506379 1576.24256,438.506379 C1592.01193,438.506379 1607.19725,429.792973 1614.72677,414.733934 C1625.35018,393.497637 1616.73675,367.673121 1595.50045,357.054973 L1366.22632,242.417906 C1354.12437,236.361668 1339.87563,236.361668 1327.77894,242.417906 L1098.50481,357.054973 C1077.26851,367.678383 1068.66034,393.492375 1079.27849,414.733934 C1089.09159,434.360145 1111.88536,443.163 1132.05879,436.001801 L1132.05879,524.47234 L1117.72587,524.47234 C1093.98499,524.47234 1074.73763,543.714445 1074.73763,567.460582 C1074.73763,591.206719 1093.98499,610.448824 1117.72587,610.448824 L1132.05353,610.448824 L1132.05353,696.425309 L1117.72587,696.425309 C1094.82687,696.425309 1075.94782,714.378293 1074.7955,737.245723 L1022.93074,1763.99121 L894.734227,1763.99121 C871.882582,1763.99121 853.024582,1781.87053 851.809125,1804.69587 L825.216398,2303.07008 C536.127047,2145.14486 324.916395,1859.52298 271.23634,1516.86407 C335.808152,1504.15702 394.82359,1469.77695 441.516082,1417.79116 C501.647004,1484.18879 582.940559,1522.49411 667.791035,1522.49411 C754.272645,1522.49411 837.102621,1482.67868 897.617648,1413.8554 C911.450707,1419.32759 927.751512,1417.49125 940.242832,1407.56238 C958.837746,1392.798 961.936898,1365.75277 947.167254,1347.15785 C941.074184,1339.481 935.449406,1331.64104 930.466559,1323.84844 C922.568719,1311.49392 908.91982,1304.02228 894.265934,1304.01702 C879.596262,1304.01702 865.952625,1311.4834 858.044262,1323.82739 C812.188383,1395.43938 742.849453,1436.51762 667.796297,1436.51762 C592.722094,1436.51762 523.414734,1395.45517 477.637781,1323.84844 C469.739941,1311.49392 456.08052,1304.01702 441.416109,1304.01702 C426.730652,1304.02228 413.076492,1311.50971 405.178652,1323.88001 C361.048617,1393.00847 294.045891,1433.97095 221.355246,1436.27032 C209.332219,1436.64916 198.009,1442.05295 190.158516,1451.17151 C182.297508,1460.2848 178.624828,1472.27626 180.019184,1484.23089 C213.183797,1767.99012 349.367602,2029.98688 563.493246,2221.95543 C648.380555,2298.06619 742.954688,2360.65433 844.032305,2408.67278 C845.447707,2409.45151 846.910465,2410.15132 848.420578,2410.7722 C1003.17299,2483.48916 1173.0581,2522.03651 1347,2522.03651 C1606.31855,2522.03651 1852.38282,2438.82243 2058.58958,2281.39706 C2077.46337,2266.99048 2081.08343,2240.01364 2066.67158,2221.14512 C2052.265,2202.2766 2025.28816,2198.64075 2006.41438,2213.06838 Z M1158.5989,782.407055 L1535.4011,782.407055 L1549.02895,1052.28061 L1144.95526,1052.28061 L1158.5989,782.407055 Z M1218.03001,393.408188 L1347,328.925824 L1475.96999,393.408188 L1475.96999,524.467078 L1218.03527,524.467078 L1218.03527,393.408188 L1218.03001,393.408188 Z M1218.03001,610.448824 L1475.96473,610.448824 L1475.96473,696.425309 L1218.03001,696.425309 L1218.03001,610.448824 Z M1122.64031,1494.11766 L1440.26923,1494.12292 C1464.0101,1494.12292 1483.25747,1474.87555 1483.25747,1451.13468 C1483.25747,1427.3938 1464.01536,1408.14643 1440.26923,1408.14643 L1126.98649,1408.14117 L1140.61961,1138.26762 L1553.38039,1138.26762 L1584.9928,1764.00173 L1109.01246,1764.00173 L1122.64031,1494.11766 Z M909.114504,2344.3167 L935.4915,1849.97296 L1763.51766,1849.97296 L1790.44713,2341.82264 C1652.16916,2403.86883 1502.1523,2436.06002 1347.00526,2436.06002 C1191.81087,2436.06529 1043.55142,2403.38475 909.114504,2344.3167 Z" id="Shape"></path>
                    <circle id="Oval" cx="1315.47178" cy="2238.31411" r="42.9882422"></circle>
                    <circle id="Oval" cx="1143.51881" cy="2066.35588" r="42.9882422"></circle>
                </g>
            </g>
            <circle id="Oval-2" fill="#03242B" cx="1512.5" cy="2106.5" r="43.5"></circle>
        </g>
    </g>
</svg>