<?xml version="1.0" encoding="UTF-8"?>
<svg width="100pt" height="100pt" version="1.1" viewBox="0 0 100 100" xmlns="http://www.w3.org/2000/svg">
 <path d="m50 68.289c-3.6797 0.003907-6.9961 2.2266-8.3984 5.625-1.4062 3.4023-0.625 7.3125 1.9766 9.9141 2.6055 2.6016 6.5156 3.3789 9.918 1.9688 3.3984-1.4102 5.6133-4.7266 5.6133-8.4062 0-2.4141-0.96094-4.7305-2.668-6.4375-1.7109-1.707-4.0273-2.6641-6.4414-2.6641zm1.1484-18.238c-3.4453-0.097656-6.8828 0.42188-10.148 1.5391-4.6875 1.6172-8.8398 4.4961-12 8.3203-0.62891 0.75781-0.98438 1.707-1 2.6914-0.015625 1.9062 1.1641 3.6211 2.9531 4.293 1.7852 0.66797 3.8008 0.15234 5.0469-1.293 2.8242-3.3789 6.7734-5.6211 11.121-6.3125 4.3477-0.69141 8.7969 0.21484 12.527 2.5508 1.6367 1.0469 3.1016 2.3359 4.3516 3.8203 0.78906 0.93359 1.9219 1.5117 3.1406 1.6016 1.2188 0.089843 2.4219-0.31641 3.3398-1.1211 0.89844-0.78906 1.4492-1.8984 1.5312-3.0938 0.078125-1.1914-0.32031-2.3672-1.1133-3.2656-4.8789-5.9414-12.086-9.4883-19.77-9.7305zm21.352-12.312c-9.2617-5.2539-20.07-7.1055-30.551-5.2344-10.484 1.875-19.98 7.3555-26.848 15.496-1.6602 1.9062-1.457 4.793 0.44922 6.4492s4.793 1.457 6.4492-0.44922c2.0977-2.4766 4.5039-4.668 7.1602-6.5312 6.4492-4.5078 14.188-6.8125 22.055-6.5586 7.8633 0.25391 15.438 3.0469 21.586 7.9609 1.9297 1.5742 3.7148 3.3203 5.3398 5.207 1.2578 1.3984 3.2578 1.8555 5 1.1406 1.7891-0.73828 2.9258-2.5156 2.8594-4.4492-0.035156-0.95312-0.39062-1.8672-1-2.5977-3.5-4.207-7.7344-7.7422-12.5-10.434zm27.23 0c-0.45312-0.98828-1.0898-1.8828-1.8789-2.6289-8.6289-9.7695-20.039-16.664-32.703-19.758-5.043-1.2109-10.211-1.832-15.398-1.8516-3.4336 0.035156-6.8594 0.32812-10.25 0.87891-4.3594 0.73438-8.6328 1.9141-12.75 3.5195-9.918 3.8867-18.707 10.188-25.57 18.332-0.93359 1.0156-1.3438 2.4102-1.1094 3.7695 0.21094 1.7539 1.4766 3.2031 3.1914 3.6406 1.7148 0.5625 3.6016 0.003906 4.7383-1.4023 0.46094-0.51172 0.89844-1 1.3594-1.5508v0.003906c5.4805-6.0898 12.254-10.871 19.82-14 12.301-5.0742 26.031-5.4805 38.609-1.1523 7.0469 2.3945 13.52 6.2266 19 11.262 1.8789 1.7188 3.5781 3.6289 5.3203 5.5 1.4453 1.5664 3.7812 1.9375 5.6406 0.89062 1.8789-1.1055 2.707-3.3867 1.9805-5.4414z"/>
</svg>
