<?xml version="1.0" encoding="UTF-8"?>
<svg fill="#FF7066" width="100pt" height="100pt" version="1.1" viewBox="0 0 100 100" xmlns="http://www.w3.org/2000/svg">
 <g>
  <path d="m18.723 14.051c0.14062-0.125 0.28516-0.25 0.42969-0.37109-0.14453 0.12109-0.28516 0.24609-0.42969 0.37109z"/>
  <path d="m70.887 29.48c-0.0625-1.0625-1.3438-1.4688-2.2266-1.9297 0.046875-0.97656 0.30469-0.20703 0.24219-1.1484-0.30469-0.011719-0.48828-0.0625-0.77734 0.0625-0.6875 0.30469-0.30469 0.39062-0.30469 0.5 0.03125 0.52344 0.6875-0.10938-0.015624 0.53906-0.19922 0.17188-0.51953 0.17188-0.76172 0.19531-0.47266-0.66016-0.44141-0.98828-1.3594-1.0156-0.36719 0.39062-0.79297 0.97656-0.99219 1.5781-0.30469 0.90625-0.09375 0.28125-0.0625 1.2578-0.015625 0.039063 0 0.085938 0 0.125-0.015625 0.58594-0.15234-0.10938-0.0625 0.42969 0.71875-0.14844 0.16797-0.13281 0.70312-0.30469 0.50391-0.17188 2.0469-0.63672 2.4883-0.52344 1.0547 0.23438 1.9375 1.0664 3.1289 0.23438z"/>
  <path d="m74.672 31.57c0.74609 0.53906 1.2969 0.86719 2.2734 0.60156 0.13672-1.1992-0.24219-1.1367-0.60937-1.957 0.0625-0.097656 0.22656-0.21875 0.25781-0.24219 0.27344-0.36719 0.13672 0.14453 0.27344-0.47656-0.71875-0.23047-1.875-0.96484-1.9688-1.9297 0.35156-0.28125 0.24219-0.10938 0.5-0.28125 0.5625-0.36719 0.13672 0.19531 0.47266-0.42969-0.28906-0.5625-0.60938-0.66016-1.3125-0.37891-0.30469 0.125-1.1133 0.69531-1.2812 0.82813 0.10547 1.4922 0.99219 2.0664 1.6172 2.75-0.070312 0.71094-0.23828 0.52734-0.22266 1.5156z"/>
  <path d="m96.938 41.738c-0.13672-0.21875-0.28906-0.50781-0.42969-0.92969-0.92969 0.30469-0.96094 0.32812-2.0586 0.51172l-0.050781 0.066407c-0.4375 0.625 0.023437 0.36328-0.74609 1.0117-0.91406 0.76562-1.5078 1.8203-2.5312 2.4414-0.125 1.0898 0.089844 1.332-0.18359 2.625-0.10938 0.47656-0.64062 1.7578-1.2656 1.6641-0.19922-0.039062-1.0391-2.1172-1.2344-2.6875-0.33594-0.97656-0.71875-1.6992-0.96094-2.8242-0.13672-0.59766-0.23047-1.7461-0.36719-2.1484-0.65625 0.097656-0.625 0.51562-1.25 0.074219-0.44531-0.32031-0.24219-0.51562-0.48828-0.99219-0.51562-0.48438-1.0508-0.97656-1.5859-1.4648-0.41406-0.13281-2 0.10156-2.6719 0.023437-1.207-0.10938-1.3125-0.039063-2.0273-1-1.2695 0.0625-1.1602 0.53516-2.3984-0.52344-0.80859-0.6875-0.65625-1.7852-1.8281-1.1641-0.046875 1.0039 0.44531 1.2227 0.88281 1.6875 0.32031 0.35547 0.71875 0.59766 0.88672 1.0742 0.015625 0.015625 0.089844 0.46484 0.10547 0.52734 1.1445 0.074218 1.418-0.47656 2.043-0.9375 0.60938 0.57422 0.015625 0.67187 0.90234 1.125 0.70312 0.35547 0.5625 0.14844 1.0234 0.71875 0.22656 0.76953-1.5703 2.8594-2.168 3.2383-0.45703 0.29297-0.70312 0.12109-1.1133 0.46094-0.60938 0.51562 0.078125 0.44141-0.98828 0.83203-1.1445 0.41406-2.2773 1.2969-3.4805 1.3672-0.25781-0.70703-0.51562-1.4297-0.77734-2.1484-0.76562-2.4531-0.73438-1.5039-1.5078-2.7734-0.36719-0.54688-0.21484-0.90625-0.45703-1.3945-0.16797-0.36719-0.42969-0.52344-0.65625-0.97656-0.35156-0.69531-0.76172-1.7812-1.5703-1.6719-0.16797 0.54688 0.74609 2.4062 0.97656 2.8594 0.22656 0.45312 0.59375 0.64844 0.70312 1.2969 0.15234 0.89062-0.03125 0.78125 0.45703 1.3828 1.0234 1.2344-0.042969 1.0156 1.5391 2.2227 1.1914 0.90625 0.88672 1.1758 1.3906 2.3828 0.77734 0.22266 3.0938-0.81641 3.4922-0.51172 0.47266 0.84375-0.54688 2.1875-0.80859 2.9219-0.85547 2.4531-2.3477 2.418-3.4922 4.2969-0.625 1.0156-0.91406 1.1523-1.4922 2.3711-0.65625 1.3828 1.3281 5.207 0.13672 6.8086-0.25781 0.36719-1.0977 0.58594-2.1484 1.6953-1.1172 1.2109 0.027344 1-0.39844 3.0195-0.33594 0.46094-0.74609 0.48438-1.1602 0.81641-0.14844 0.47656-0.027344 0.85547-0.28906 1.4414-0.27344 0.70703-0.32031 0.33203-0.71875 0.90625-0.28906 0.45312-0.25781 0.63281-0.59375 1.0508-0.28906 0.37891-0.44531 0.48438-0.71875 0.73438-1.3281 1.2227-4.1797 1.2578-4.4219 1.0859-0.67188-0.57422-0.21484-0.71875-0.38281-1.5234-0.16406-0.71094-0.53906-1.3047-0.85547-1.8516l-0.03125-0.054687c-0.15234-0.26953-0.28906-0.52734-0.36719-0.76953-0.54688-1.7344-0.35156-3.0547-1.3125-4.8125-1.207-2.2734 0.67188-3.4609 0.59375-4.7422-0.03125-0.33984-0.15234-0.54688-0.18359-0.81641-0.22656-1.4141-0.36719-2.6875-1.3125-3.8008-1.0391-1.2109-0.90234-0.78125-0.5625-2.7734 0.42969-2.2852-0.54688-1.6992-1.9219-1.7578-0.67187-2.0781-1.9844-1.0625-3.2969-0.45313-0.82422 0.37891-1.1289-0.10937-2.0586 0.023438-2.0781 0.28125-0.44531 1.1719-3.2188-1.0273-1.1602-0.91797-0.38281-0.45312-1.0703-1.6016-0.22656-0.41406-0.92969-0.96875-1.25-1.3828-1.0508-1.3203 0.19922-2.6523 0.015625-4.1641-0.32031-2.8125-0.77734-0.36719 0.79688-3.7656 0.82422-1.8047 2.0742-1.8203 2.3945-2.625 0.27344-0.71875 0.089844-1.2344 0.60938-1.8945 0.45703-0.53516 1.1133-0.42969 1.3711-1.2695 0.36719-1.0391-0.33594-1.1719-1.0977-1.1992-0.32031-1.0859-0.32031-0.81641-0.074219-1.8203 0.13672-0.5625 0.015625-0.83203 0.13672-1.3945 0.30469-1.4023 2.7031-0.011719 3.3867-0.58594 0.32031-0.59766 0.36719-1.1875 0-1.7578-0.38281-0.57422-0.88672-0.5-1.1445-1.0508 0.57813-0.39063 0.15234-0.046876 0.65625-0.16016 0.59375-0.13281 0.51563-0.30469 1.2188-0.4375 0.625-0.125 1.0273-0.69922 1.6328-1.0898 0.87109-0.5625 0.45703-1.0625 1.5078-1.2344 1.6953-0.29297 0.59375-0.24219 0.78125-1.8203 0.25781-0.10156 0.5-0.21094 0.74609-0.32031 0.53125 0.69531-0.13672 0.41406 0.50391 0.87891 0.16406-0.097656 0.36719-0.19531 0.54687-0.29297-0.09375-0.75781-0.44531-0.60938-0.67187-1.5508-0.83984 0.13281-1.1406 0.84375-1.8164 0.58594-0.65625-0.24609-0.6875-1.1875-0.65625-1.9688 0.24219-0.58594 1.4609-0.90625 1.9375-1.0508 0.76562-0.25781 0.65625-0.76953 1.3594-1.4648 0.91406-0.91797 0.24219 0.011719 0.6875-1.1719 1.0078-0.039062 0.53125-0.070312 1.1289-0.37891l0.027344-0.011719 0.0625-0.023437c0.35156-0.16016 0.80859-0.19531 1.2656-0.35156 1.6797-0.5625 2.3633-0.28125 3.5859 0.21875 0.94531 0.39062 3.8008 0.40234 4.0156 1.6016-0.6875 0.71875-1.3438 0.19531-2.3359 0.25781 0.18359 0.92969 0.25781 0.92969 1.0977 1.1875 0.13672-0.44141-0.058593-0.26953 0.16797-0.54688 0.27344 0.058594 0.54688 0.10938 0.82422 0.16016 0.27734-0.94141 0.59375-0.80859 1.5273-0.91797-0.15625-0.64844-0.32031-0.46484 0.027344-0.97656 0.96484 0.097657 0.18359 0.011719 0.65625 0.78125 0.67187-0.085937 1.3281-0.83203 2.2578-0.92969 0.57812-0.0625 0.55078 0.16016 1.3711 0.070312 0.67188-0.070312 0.64062-0.31641 1.3125-0.035156 0.24219-0.45312 0-0.44141 0.59375-0.55078 0.91406-0.16016 1.7109 0.40234 2.5938 0.52734-0.65625-0.80859-1.2812-0.64844-0.46875-1.9922 1.0195-0.20703 1.1133-0.058594 1.5547 0.71094 0.25-0.14453 0.35547-0.28516 0.48047-0.35547-0.070312-0.054688-0.13672-0.11328-0.21094-0.16797-0.38281-0.30469-0.76562-0.59766-1.1562-0.89062-0.074218-0.054688-0.14844-0.10938-0.22656-0.16406-0.32422-0.24219-0.65625-0.47656-0.98828-0.70703-0.10547-0.070312-0.21094-0.14844-0.31641-0.21875-0.40234-0.27344-0.80859-0.54688-1.2188-0.80859-0.039062-0.023437-0.078124-0.046874-0.11719-0.070312-0.375-0.23828-0.75391-0.46875-1.1406-0.69922-0.11719-0.070312-0.23828-0.14453-0.35547-0.21094-0.36719-0.21094-0.73438-0.42578-1.1016-0.625-0.066407-0.035156-0.12891-0.070313-0.19141-0.10547-0.42187-0.23047-0.84766-0.45312-1.2812-0.67188-0.125-0.0625-0.25-0.12109-0.37109-0.18359-0.34766-0.16797-0.69141-0.33594-1.043-0.5-0.10938-0.050781-0.21875-0.10156-0.33203-0.15234-0.43359-0.19922-0.875-0.39062-1.3164-0.57812-0.11719-0.046876-0.23437-0.09375-0.35156-0.14453-0.35156-0.14453-0.70312-0.28516-1.0625-0.41797-0.13672-0.054688-0.27344-0.10547-0.40625-0.15625-0.45312-0.16797-0.90625-0.33203-1.3633-0.48438-0.085938-0.027343-0.17578-0.054687-0.26172-0.085937-0.38672-0.12891-0.77344-0.25391-1.168-0.37109-0.14844-0.042969-0.29688-0.085937-0.44531-0.13281-0.41406-0.12109-0.82422-0.23828-1.2422-0.34766-0.070312-0.015624-0.13281-0.039062-0.20312-0.054687-0.46875-0.12109-0.94531-0.23438-1.418-0.33984-0.14844-0.035156-0.30469-0.066406-0.45313-0.10156-0.37891-0.082031-0.75391-0.15625-1.1367-0.22656-0.125-0.023437-0.25-0.050781-0.375-0.070312-0.47656-0.085938-0.96094-0.16406-1.4453-0.23828-0.14453-0.023437-0.28906-0.039062-0.43359-0.0625-0.37891-0.054687-0.75-0.10156-1.1328-0.14453-0.14844-0.019531-0.30469-0.039062-0.45703-0.054687-0.48047-0.0625-0.96875-0.10547-1.4648-0.14453-0.11719-0.007812-0.23828-0.015624-0.35547-0.023437-0.40234-0.023437-0.80469-0.046875-1.207-0.0625-0.16406-0.007813-0.32812-0.015625-0.49219-0.019531-0.47266-0.015625-0.94922-0.023438-1.4219-0.027344h-0.11719c-11.711 0-22.43 4.2266-30.727 11.234l0.023437 0.042969c0.0625 0.10156 0.10547 0.10156 0.16797 0.35547-0.76562 0.1875-0.76953 0.31641-1.0625 0.35156-0.17578 0.16016-0.35156 0.31641-0.52734 0.47266 0.55469 0.19141 1.2852 0.0625 1.832 0.039063 0.19922-0.36719 0.32031-0.6875 0.67188-0.81641 0.13672-0.050782 0.30469-0.0625 0.53516-0.050782 0.027344 0.17969 0.074219 0.36719 0.12109 0.54688 0 0.011719 0.019532 0.089844 0.019532 0.10938 0.015624-0.011718 0.027343 0.078125 0.039062 0.11328 0.96484-0.5625 0.15234-0.57422 0.67188-1.5859-0.80859-0.16016-0.69922-0.0625-1.2031-0.57812 0.48828-0.53516 1.4336-0.71875 2.1367-0.67188-0.046875 0.48828-0.27344 0.47656-0.089844 0.89062 0.54688-0.34375 0.92969-1.2578 1.8164-1.0898 0.16406 0.12109 0.36719 0.23438 0.54688 0.34375-0.46094 0.42969-1.1445 0.45312-1.7422 0.69531-0.25781 2.6523 0.83984 0.42969 0.47266 2.25 0.65625-0.050782 1.2969-0.52344 1.5391-1.0156-0.23828-0.30859-0.58984-0.30859-0.78906-0.6875 0.15625-0.48828 0.48438-0.85938 0.94922-1.0781 0.3125-0.14844 0.6875-0.23047 1.1133-0.23047 4.8516 0.039063 2.5469 0.25781 4.043 0.94141 0.33594 0.14844 0.92969 0.22266 1.1289 0.51562 0.30469 0.46484 0.015625 0.90234 0.5 1.2695 0.42969 0.32031 0.48828-0.011719 1.0547 0.69531-0.12109 0.40234-0.41406 0.82031-1.0078 0.83203-0.82422 0.011719-0.33594-0.55078-1.2188-0.46484 0.015625 0.82812 0.83984 1.1484 0.074219 1.6016-0.67188 0.40234-0.24219-0.14844-0.74609 0.13281-0.015625 0.011719-0.0625 0.039063-0.078125 0.050782-0.03125 0.023437-0.058594 0.058594-0.078125 0.085937-0.089844 0.097657-0.16406 0.18359-0.24219 0.26953-1.2188-0.33203-0.98828-0.17969-1.7227-0.98828-0.27344-0.30469-0.32031-0.38281-0.8125-0.33984-0.30469 0.007812-0.69922 0.14453-0.99219-0.125 0.59375-0.74609 0.88672-0.023438 1.7578-0.46484 0.15234-0.070313 1.1133-0.81641 1.2656-0.98828-0.25781-0.58594-0.03125-0.10156-0.41406-0.47656-0.85547-0.86719-1.1016-0.64453-2.2578-0.64453-0.54297 0.625-0.94922 1.3945-1.5391 1.7344-0.35547 0.20703-0.78125 0.25391-1.3438 0.011718 0.25781 1.0508 0.92969 0.24219 0.98828 1.5156-0.44141-0.085938-0.67188-0.30859-1.1289-0.14844-0.97656 0.36719-0.10547 0.32812-0.027344 0.52344 0 0.011718 0.45312 0.058593 0 0.23047-0.50391 0.18359-0.078125-0.097656-1.0547-0.67188 0.13672-0.24219 0.27344-0.5 0.41406-0.75781-0.79297 0.24219-1.7852 0.63672-2.7148 1.0898-1.0547 0.52344-2.0469 1.125-2.6406 1.6719-0.015625 0.91797 0.14844 0.30469 0.24219 1.3945 1.418 0.085937 0.96094 0.51172 2.3789 0.91406 0.27344 0.074219 0.625 0.14844 1.0547 0.22266 0 0.68359-0.60938 1.1992-0.1875 1.9062 0.99219 0.69531 1.0234-0.66016 1.2695-1.5234 3.3555-0.70312 1.7383-1.6914 2.6055-3.5391 0.13281-0.27344 0.31641-0.57031 0.58203-0.88672 0.25781 0.007812 1.3125 0.12109 1.5391 0.16797 0.76172 0.13281 0.35156 0.32031 1.1719 0.68359-0.015625 0.66016-0.35156 1.5156 0.625 1.3594 0.74609-0.13281 0.57812-0.71875 1.4922-0.86719 0.41406 0.96875 0.30469 1.3828 0.48828 2.543 2.1953 0.85547 1.2188 1.5508 0.79297 3.1523 0.27344 0.13281 0.5625 0.25781 0.85547 0.38281-0.015624 0.46484-0.03125 0.91406-0.046874 1.3711-0.042969 0-2.3477-0.5-2.5-0.55078 0.35156-1 0.99219-1.0156 1.4023-2.0391-0.82422 0.14844-0.76562 0.40234-1.3594 0.58594-0.53125 0.16016-0.94531 0.050781-1.5078 0.12109 0.015625 0.042969 0.03125 0.125 0.039062 0.26953 0.03125 0.32031 0.18359 0.015625-0.03125 0.35547-0.76172-0.35547-0.5-1.1875-1.9219-0.41406 0.32031 0.14844 0.64062 0.28125 0.97656 0.41406-0.042969 0.9375-0.12109 0.23047-0.32031 0.85547-0.48438 1.6016 1.3281 0.60938 1.8047 0.52734-0.125 0.84375-0.64062 0.84375-1.375 1.0742-0.80859 0.24219-1.0508 0.57422-1.6953 0.72266 0-1.0039-0.14844-0.16016 0.28906-0.85937-0.64062 0.0625-1.1133 0.35547-1.7227 0.60937l-0.0625 0.023438c-0.78125 0.32031-0.90234 0.36719-0.99219 1.3672-0.67188 0.21094-1.4453 0.44531-1.9219 0.92969-0.47266 0.45312-0.94531 0.90625-1.4023 1.3438-0.046875 0.039063-0.078125 0.070313-0.10547 0.097656 0.16797 1.2617 0 1.2812-0.76563 1.7734-0.64062 0.41406-0.85547 0.40625-1.4492 0.92969-1.9062 1.7109-0.98828 0.91406-0.88672 3.8594-0.39844-0.12109-0.77734-0.25781-1.1406-0.39062-0.28906-1.9531 0.10547-1.3086-1.4648-1.7578-1.6953-0.48438-1.4609 0.34375-2.1641 0.48828-0.78125 0.17188-1.1602-0.70703-2.2891 0.023437-0.625 0.42969-1.2188 0.70703-1.375 1.4648-0.18359 0.91797-0.59375 1.5859-0.53125 2.6016 0.10547 2.75 2.6094 2.9062 3.2461 1.625 0.42969-0.85547 0.32031-1.3203 1.7109-1.0977 0.13672 0.73438-0.074218 1.2695-0.25781 1.832-0.12109 0.33203-0.46094 0.92578-0.28906 1.3828 0.99219 0.40234 1.0234-0.35547 2.332 0.42578 0.09375 1.3125-0.59375 2.7773 0.41406 3.5312 0.77734 0.57422 0.82422 0.0625 1.5078-0.058594 0.76562-0.13281 0.625 0.33984 1.3281 0.45312 0.39844-0.48828 0.23047-0.18359 0.48828-0.78125 0.45703-1.0391 0.57812-0.54688 1.6641-1.1875 0.10547-0.058594 0.19531-0.12109 0.30469-0.19531 0.12109 0.25781 0.25781 0.5 0.38281 0.74609 0.79297-0.94141 0.88672-0.023438 1.8008 0.23047 0.39453 0.10938 0.67188 0.14844 0.89062 0.14844 0.66406 0.007813 0.73438-0.31641 1.6406 0.007813 0.10547 0.050781 0.24219 0.085937 0.36719 0.12109 0.015625 0 0.058594 0.023438 0.058594 0.050782 0.015625 0.011718 0.0625 0.046875 0.074219 0.058594 0.15234 0.17187 0.16797 0.34375 0.28906 0.52734 0.625 0.59375 1.2539 1.1992 1.8633 1.7852 1.2031 0.47266 1.2031-0.41797 2.5781 0.91406 0.57813 0.54688 0.32031 0.53906 0.64063 1.25 0.046874 0.10938 0.13672 0.21875 0.19922 0.35156 0.12109 0.33203 0.25781 0.64844 0.39844 0.96875 0.625 0.81641 1.4766 0.30469 2.3477 1.1484 0.5 0.48828 0.12109 0.33984 1.2344 0.53516 1.7266 0.28125 1.0547 0.125 2.3672 1.1133 0.5 0.36719 0.625 0.16016 1.0977 0.47266 0.65625 0.91797 0.48438 1.9102-0.0625 2.7148-1.6953 2.4688-1.1133 2.0664-1.1875 4.0234-0.0625 1.125-0.38281 3.4453-1.4336 3.7266-3.832 1.0781-1.6016 1.8203-2.6094 3.7109-0.28906 0.53906-0.50391 0.67188-0.6875 1.1016-0.76172 1.7852-0.22656 2.3828-2.4844 1.9805 0.21484 0.37891 0.078125 0.12109 0.28906 0.46094 0.67187 1.0391 0.78125 1.8203-0.59375 2.0781-1.1406 0.21875-0.65625 0-0.76172 1.2695-0.44531 0.18359-0.64062 0-0.92969 0.29297 0.39844 0.73438 0.027344 0.12109 0.70312 0.53906-0.125 0.40234-0.21484 0.79297-0.32031 1.1836-0.25781 0.95312-0.33594 0.074219-0.42969 1.1875 0.39844 0.18359 0.67188 0.14844 1.0234 0.625-0.046875 0.36719-0.41406 1.3711-0.51953 1.9453 0.5625 0.84375 1.0234 1.7461 2.2305 1.8359-0.015625 0.70312 0.14844 0.63281-0.46094 0.78125-0.51562 0.12109-1.6172-0.36719-2.0781-0.60938-0.79297-0.42969-1.5234-0.98828-2.0586-1.793-0.30469-0.45703-0.17969-0.23438-0.5-0.66016-0.57812-0.74609-0.35156-1.0898-0.51562-1.5859-0.09375-0.29297-0.5625-0.60938-0.36719-1.5664 0.046876-0.26953 0.47266-1.5508-0.042968-1.3281-0.51953 0.20703 0.39844 0.12109-0.32031 0.46094-0.16797-0.46094-0.30469-1.1484-0.39844-1.7227-0.18359-0.96484-0.41406-1-0.51953-1.5859-0.22656-1.3594 0.35156-1.5039-0.28906-3.7656-0.42188-1.4922-0.25-5.0352-0.69531-6.8516-0.070313-0.28906-0.16016-0.53516-0.26563-0.72266-0.41406-0.68359-1.418-1-2.2266-1.5508-0.042969-0.011719-0.074219-0.023437-0.089844-0.050781-1.1133-0.78125-2.168-3.8477-3.0508-4.9961-0.41406-0.55078-0.67188-0.30859-0.85547-1.1719-0.19922-0.79688 0.10547-0.66016 0.36719-1.3242-1.3594-2.4883 1.7578-2.4531 1.1133-5.4453-0.13672-0.55078-0.53125-1.3203-0.86719-1.5625-0.64063 0.28125-0.33594 0.4375-0.67188 0.97656-0.51562-0.29297-1.0352-0.58594-1.5391-0.87891-1.5703-1.5156-0.73438-0.41406-1.1719-1.4062-0.94922-2.0742-1.8477-0.91406-2.9766-1.9414-0.50391-0.42969-0.59375-1.1016-1.4336-0.97656-1.2656 0.16797-0.5625 0.36719-1.875-0.24609-1.1172-0.52734-2.2734-1.1367-3.0547-1.8438-0.039062-1.4844 0.41406-1.3438-0.71875-2.7109-0.73047 3.2852-1.1133 6.7227-1.1133 10.25 0 0.54688 0.011719 1.0898 0.03125 1.6328 0.003906 0.11719 0.007812 0.23438 0.011719 0.35156 0.023437 0.51562 0.046875 1.0312 0.085937 1.5469 0.003906 0.023438 0.003906 0.039062 0.007813 0.0625 0.039062 0.53906 0.089843 1.0781 0.14844 1.6133 0.007813 0.10547 0.023438 0.21484 0.035156 0.32422 0.054688 0.48047 0.11719 0.95703 0.1875 1.4297 0.007813 0.054687 0.015626 0.11328 0.023438 0.16797 0.078125 0.52734 0.16797 1.0469 0.26172 1.5703l0.054687 0.28906c0.085938 0.45703 0.17969 0.91406 0.28125 1.3672 0.019532 0.074219 0.03125 0.14844 0.050782 0.22656 0.11719 0.51562 0.24219 1.0273 0.375 1.5352 0.023437 0.074218 0.039062 0.15234 0.0625 0.22656 0.12109 0.44922 0.24609 0.89844 0.38281 1.3438 0.023438 0.085938 0.046875 0.16406 0.070312 0.25 0.15625 0.5 0.31641 1.0039 0.48438 1.5 0.015624 0.046875 0.035156 0.097656 0.050781 0.14844 0.16016 0.45312 0.32031 0.90234 0.49219 1.3477 0.03125 0.085937 0.0625 0.16797 0.09375 0.25 0.19141 0.49609 0.39062 0.98438 0.59375 1.4727 0.003906 0.007812 0.007813 0.011719 0.007813 0.023438 0.19922 0.46875 0.41406 0.9375 0.625 1.3984 0.039062 0.078125 0.070312 0.16016 0.10938 0.23828 0.44922 0.94922 0.92578 1.8828 1.4336 2.7969 0.039062 0.070313 0.078124 0.13672 0.11719 0.20703 0.51562 0.92188 1.0625 1.8203 1.6328 2.6992 0.039062 0.054688 0.074218 0.11328 0.11328 0.16797 0.58203 0.89062 1.1953 1.7539 1.8359 2.5977 0.03125 0.039063 0.0625 0.082032 0.09375 0.12109 0.31641 0.41406 0.63281 0.82031 0.96094 1.2188 0.007812 0.007812 0.015625 0.023438 0.023437 0.03125 0.34766 0.42188 0.69531 0.83594 1.0547 1.2461 0.023437 0.023437 0.039062 0.042968 0.058593 0.066406 0.34766 0.39453 0.69531 0.77734 1.0508 1.1562 0.019531 0.019531 0.039062 0.039062 0.054687 0.058594 0.74609 0.78906 1.5195 1.5547 2.3164 2.293 0.023437 0.023438 0.046874 0.042969 0.070312 0.066407 0.79688 0.73438 1.6172 1.4453 2.4648 2.125 0.027344 0.023437 0.054687 0.042969 0.082031 0.066406 0.84375 0.67578 1.7148 1.3281 2.6094 1.9453 0.027344 0.023437 0.054688 0.039062 0.085938 0.058593 0.89453 0.61719 1.8125 1.207 2.75 1.7656 0.023437 0.015625 0.054687 0.03125 0.078124 0.046875 0.94141 0.55859 1.9062 1.0859 2.8906 1.5781 0.023437 0.007813 0.039062 0.023438 0.0625 0.03125 6.4141 3.1914 13.641 4.9961 21.289 4.9961 26.32 0 47.656-21.336 47.656-47.656 0-2.8164-0.24609-5.5781-0.71875-8.2617zm-46.469-22.117c0.12109 0.27344 0.24219 0.53906 0.38281 0.80859 0.18359 0.75781-0.41406 0.13281 0.18359 1.0391 0.46875 0.5625 0.92969 1.125 1.3867 1.6836-0.28906 0.84375-0.27344 0.91797-1.0977 0.98828-0.57812 0.050781-1.2344 0.21094-1.6797 0.18359 0.16797-1.0859-0.15234-0.52344 0.10547-1.1484 0.28906-0.74609 0.33594-0.18359 0.59375-0.90625-0.5625-0.84375-1.1562-0.26953-1.1289-1.9766 0.53906-0.47656 0.46094-0.40234 1.2539-0.67188zm25.07 44.059c-0.24219 0.67187-0.45703 1.4922-0.6875 2.2109-0.30469 1.0156-1.0234 4.25-2.3477 2.9688-0.44531-0.41797-0.42969-1.8203-0.14062-2.3828 0.8125-1.5156 0.078125-1.1602 0.35156-2.3203 0.21094-0.92969 0.94531-0.69922 1.4922-1.1992 0.5-0.44141 0.59375-1.2227 1.2656-1.5625 0.66016 0.92969 0.3125 1.5664 0.066406 2.2852zm21.332-22.316c0.023437 0.125 0.042968 0.25 0.066406 0.375 0.003906 0.003907 0.003906 0.007813 0.007812 0.007813-0.023437-0.125-0.050781-0.25391-0.074218-0.38281z"/>
 </g>
</svg>
